<?xml version="1.0" encoding="UTF-8"?>
<svg id="Layer_2" data-name="Layer 2" xmlns="http://www.w3.org/2000/svg" viewBox="0 0 338.65 107.53">
  <defs>
    <style>
      .cls-1 {
        fill: #edebc0;
      }

      .cls-2 {
        fill: #662161;
      }
    </style>
  </defs>
  <g id="Layer_1-2" data-name="Layer 1">
    <g>
      <rect class="cls-1" y="28.58" width="338.65" height="59.52" rx="5" ry="5"/>
      <g>
        <path d="M44.07,54.83c-1.68-2.03-4.75-2.08-6.95-.93-2.47,1.3-4,4.03-5.36,6.36-1.44,2.46-2.55,5.38-1.68,8.24s3.43,4.43,6.26,4.61c3,.19,5.89-1.39,7.55-3.85,1.08-1.61-1.52-3.11-2.59-1.51-1.18,1.76-3.53,2.75-5.61,2.26-1.08-.25-2.08-.84-2.56-1.87s-.44-2.16-.18-3.2c.34-1.37,1.04-2.59,1.77-3.78.66-1.07,1.3-2.2,2.12-3.15,1.19-1.38,3.6-2.88,5.1-1.05.52.63,1.59.53,2.12,0,.62-.62.52-1.49,0-2.12h0Z"/>
        <path d="M53.02,47.1c-2.48,6.61-4.62,13.33-6.41,20.16-.49,1.87,2.4,2.67,2.89.8,1.79-6.83,3.93-13.55,6.41-20.16.68-1.81-2.22-2.59-2.89-.8h0Z"/>
        <path d="M56.21,58.47l-2.78,9.2c-.23.75.27,1.67,1.05,1.85s1.6-.24,1.85-1.05l2.78-9.2c.23-.75-.27-1.67-1.05-1.85s-1.6.24-1.85,1.05h0Z"/>
        <path d="M61.24,50.45h-.43c-.21,0-.4.04-.58.13-.19.06-.35.16-.48.31-.15.14-.25.3-.31.48-.09.18-.14.37-.13.58l.05.4c.07.25.2.47.39.66l.3.23c.23.14.49.2.76.2h.43c.21,0,.4-.04.58-.13.19-.06.35-.16.48-.31.15-.14.25-.3.31-.48.09-.18.14-.37.13-.58l-.05-.4c-.07-.25-.2-.47-.39-.66l-.3-.23c-.23-.14-.49-.2-.76-.2h0Z"/>
        <path d="M72.88,55.14c-.89-2.05-3.6-2.5-5.46-1.65-2.16.99-3.31,3.39-4.17,5.47s-1.66,4.45-1.4,6.67c.14,1.19.61,2.28,1.58,3.03.91.7,2.09.96,3.22.86,2.62-.21,5.12-1.62,6.94-3.47,1.36-1.38-.76-3.5-2.12-2.12-1.29,1.3-3.18,2.5-5.02,2.6-.67.04-1.28-.11-1.49-.61-.32-.75-.16-1.69.01-2.49.45-2.12,1.22-4.36,2.5-6.14.22-.3.47-.6.76-.83s.66-.39.91-.42c.56-.06.91.08,1.13.6.32.74,1.41.91,2.05.54.77-.45.86-1.31.54-2.05h0Z"/>
        <path d="M80.24,47.21c-1.85,7.54-3.7,15.08-5.55,22.62-.46,1.87,2.43,2.67,2.89.8,1.85-7.54,3.7-15.08,5.55-22.62.46-1.87-2.43-2.67-2.89-.8h0Z"/>
        <path d="M86.64,49.98c-1.99,2.55-4.45,4.56-7.35,5.99-.64.32-.79,1.06-.69,1.69.47,2.95,1.02,5.89,1.67,8.81.46,2.08.97,5.25,3.58,5.63.81.12,1.6-.2,1.85-1.05.2-.7-.25-1.73-1.05-1.85-.69-.1-.84-.87-1-1.47-.32-1.16-.55-2.35-.79-3.53-.51-2.44-.96-4.89-1.35-7.35l-.69,1.69c3.1-1.53,5.83-3.74,7.96-6.46.5-.64.62-1.49,0-2.12-.51-.52-1.62-.64-2.12,0h0Z"/>
        <path d="M102.92,49.84c-2.11,7.03-4.07,14.11-5.89,21.23-.48,1.87,2.42,2.67,2.89.8,1.81-7.12,3.78-14.19,5.89-21.23.56-1.85-2.34-2.65-2.89-.8h0Z"/>
        <path d="M98.61,59.53h6.52c.78,0,1.54-.69,1.5-1.5s-.66-1.5-1.5-1.5h-6.52c-.78,0-1.54.69-1.5,1.5s.66,1.5,1.5,1.5h0Z"/>
        <path d="M107.45,58.7c-1.16,2.43-2.28,5.33-.62,7.82.77,1.16,1.96,1.94,3.38,1.99s2.67-.71,3.6-1.67c1.85-1.91,2.8-4.71,2.88-7.34.04-1.27-.09-2.66-.7-3.79-.75-1.39-2.28-1.98-3.79-1.68-1.42.28-2.65,1.26-3.65,2.27s-1.88,2.27-2.48,3.6c-.33.74-.21,1.61.54,2.05.64.38,1.72.2,2.05-.54.71-1.58,1.81-3.13,3.23-4.04.36-.23.58-.34.94-.42.09-.02.28-.03.2-.04,0,0,.28.06.11.01.04.01.23.13.09.04.17.1.22.3.31.63.13.48.13.64.15,1.15.08,1.82-.37,3.58-1.36,5.14-.41.65-.92,1.27-1.66,1.56-.38.15-.77.04-1.09-.28-.07-.07-.14-.15-.2-.23.12.15-.04-.09-.07-.14-.04-.07-.08-.14-.11-.21-.21-.4.02.1-.06-.15-.03-.1-.06-.2-.09-.3-.02-.07-.07-.35-.04-.14-.03-.23-.03-.48-.01-.71.07-1.08.6-2.12,1.06-3.09.35-.73.2-1.62-.54-2.05-.66-.38-1.7-.2-2.05.54h0Z"/>
        <path d="M140.28,52.88c-1.9-1.72-4.71-1.85-6.9-.57s-3.36,4.05-3.29,6.62c.08,2.79,1.41,5.31,3.08,7.48.39.51.92,1.02,1.2,1.6.06.08.1.18.11.29-.02-.17.04-.32.19-.43,0-.06-.3-.1-.26-.07-.42-.24-.9-.3-1.31-.62-.44-.34-.76-.76-1.02-1.24-.93-1.69-3.52-.18-2.59,1.51.99,1.79,2.86,3.2,4.93,3.37,1.16.09,2.29-.43,2.8-1.51s.11-2.3-.53-3.22c-1.23-1.78-2.69-3.32-3.32-5.45-.48-1.64-.44-3.64.68-5.02.93-1.14,2.92-1.68,4.1-.62,1.43,1.29,3.56-.82,2.12-2.12h0Z"/>
        <path d="M144.68,60.21c1.43-.11,2.82-.53,4-1.37s2.37-2.05,2.67-3.5-.58-2.87-2.03-3.29c-1.16-.33-2.55-.07-3.55.58-2.39,1.56-3.53,4.31-4.42,6.91-.96,2.81-1.6,6.12.62,8.53,2.76,2.99,6.73.76,9.26-1.27.63-.51.53-1.59,0-2.12-.62-.62-1.49-.51-2.12,0-1.09.87-3.2,2.57-4.67,1.58s-1.07-3.1-.66-4.51c.53-1.82,1.16-3.78,2.3-5.33.39-.54,1.04-1.21,1.58-1.41.25-.09.39-.1.67-.1s-.06.05.19.03c.09,0,.21-.03.03,0-.05.01-.14-.15,0,.01-.05-.05-.14-.21-.14-.21,0,0-.25.46-.28.51-.25.36-.59.71-.94.98-.71.55-1.61.9-2.5.97-.81.06-1.5.65-1.5,1.5,0,.76.69,1.56,1.5,1.5h0Z"/>
        <path d="M156.4,61.74c1.36-.35,2.76-.92,3.74-1.96s1.43-2.48,1.18-3.91c-.24-1.36-1.26-2.5-2.62-2.81-1.45-.33-2.84.37-3.86,1.36s-1.68,2.36-2.19,3.73c-.54,1.46-.92,2.97-1.13,4.51-.19,1.37-.25,2.88.5,4.11.79,1.3,2.26,1.92,3.75,1.82,1.57-.11,3.08-.78,4.43-1.56,1.42-.83,2.72-1.9,3.8-3.14.53-.61.6-1.52,0-2.12-.54-.54-1.59-.61-2.12,0-1.31,1.5-2.94,2.75-4.81,3.47-.41.16-.84.29-1.27.36-.27.04-.67.01-.96-.1.1.04-.1-.09-.11-.09-.18-.16.06.12-.08-.07-.05-.06-.09-.14-.12-.21.08.16-.03-.07-.03-.09-.03-.1-.06-.21-.08-.32-.07-.33-.02-.17-.02-.1-.02-.14-.02-.29-.02-.43,0-1.01.22-2.01.47-3s.57-2.09,1.02-3.05c.34-.74.87-1.51,1.44-1.89.09-.06.18-.12.28-.17.03-.02.26-.1.07-.04.09-.03.2-.06.29-.08-.15.02-.1-.03.05.02-.29-.1.27.1.16.06,0,0,.15.17.06.05.26.37.27.98-.09,1.45-.59.78-1.59,1.08-2.54,1.32-1.87.48-1.08,3.37.8,2.89h0Z"/>
        <path d="M182.78,44.6c-3.04,8.77-6.07,17.54-9.11,26.31l2.89.8c.1-.38.21-.76.31-1.14.51-1.86-2.38-2.66-2.89-.8-.1.38-.21.76-.31,1.14-.52,1.88,2.27,2.61,2.89.8,3.04-8.77,6.07-17.54,9.11-26.31.63-1.83-2.26-2.61-2.89-.8h0Z"/>
        <path d="M177.66,56.44c1.48-.33,2.81-.55,4.22-.68,1.5-.14,3-.19,4.5-.15.78.02,1.54-.7,1.5-1.5s-.66-1.48-1.5-1.5c-3.2-.08-6.4.24-9.52.94-.77.17-1.29,1.1-1.05,1.85.26.81,1.02,1.23,1.85,1.05h0Z"/>
        <path d="M190.16,45.47c-2.65,7.4-5.11,14.87-7.37,22.4-.48,1.6,1.99,2.71,2.74,1.16s1.64-3.2,2.59-4.73c.47-.77.97-1.52,1.48-2.26.25-.36.49-.77.79-1.1.16-.21.35-.39.56-.54-.19-.1-.24-.09-.16.02.38.46.44,1.64.52,2.18.13.89.17,1.79.14,2.69-.05,1.89-.46,3.71-1.12,5.47s2.22,2.59,2.89.8c.91-2.42,1.34-5.02,1.21-7.61-.1-1.92-.25-5.11-2.17-6.2-2.33-1.33-4.1,1.11-5.26,2.77-1.54,2.22-2.89,4.56-4.07,6.99l2.74,1.16c2.26-7.53,4.72-15,7.37-22.4.65-1.82-2.25-2.6-2.89-.8h0Z"/>
        <path d="M196.83,61.94c1.64-.11,3.35-.37,4.71-1.36,1.26-.92,2.17-2.37,2.12-3.97s-1.15-3.01-2.65-3.48c-1.7-.53-3.08.42-4.08,1.72-1.84,2.39-3.41,5.3-3.26,8.41.13,2.84,1.6,5.7,4.34,6.79,2.59,1.03,6.14.04,7.29-2.65.32-.74.22-1.61-.54-2.05-.63-.37-1.73-.21-2.05.54-.51,1.2-1.77,1.72-2.92,1.56-1.49-.21-2.54-1.54-2.93-3.04-.47-1.77,0-3.64.86-5.26.49-.93,1.07-1.87,1.75-2.67.11-.13.22-.26.35-.38.19-.18.16-.11.23-.11.03,0,.18.05.15.04.15.08.26.15.39.33.09.13.13.39.06.68-.1.39-.36.73-.66.99-.84.72-2.07.85-3.13.92-.81.05-1.5.65-1.5,1.5,0,.77.69,1.55,1.5,1.5h0Z"/>
        <path d="M224.15,48.97c-2.17,7.45-4.69,14.79-7.57,22-.62,1.56,2.06,2.71,2.74,1.16.3-.69.6-1.38.9-2.06.77-1.75-1.82-3.28-2.59-1.51-.3.69-.6,1.38-.9,2.06l2.74,1.16c2.88-7.21,5.4-14.55,7.57-22,.54-1.86-2.35-2.65-2.89-.8h0Z"/>
        <path d="M225.24,57.45c.36-.82.72-1.64,1.18-2.41.38-.63.85-1.24,1.37-1.59.16-.11.33-.21.51-.3.16-.08-.03.01-.05.02.08-.03.17-.06.26-.08s.46-.1.33-.08c-.19.03.09,0,.14,0,.11,0,.22,0,.34,0,.09,0,.18,0,.27.02-.02,0-.24-.04-.07,0,.15.03.3.08.45.11.25.06.07.02,0-.01.08.03.15.07.23.11s.14.09.21.13c-.11-.07-.11-.11-.01,0,.06.06.12.12.17.18-.05-.05-.13-.24-.01,0,.04.08.08.14.12.22-.01-.03-.08-.22-.04-.06.1.37.05.67-.08,1.07-.26.84-.74,1.64-1.22,2.37-.88,1.36-2.13,2.66-3.44,3.58-.79.55-1.75,1.19-2.71,1.1-.26-.02-.47-.15-.65-.32-.12-.11-.14-.11-.23-.34.08.21,0-.07,0-.08-.06.25.09-.24.03.03.18-.79-.24-1.62-1.05-1.85-.76-.21-1.66.25-1.85,1.05-.34,1.49.3,2.88,1.51,3.76s2.71.93,4.05.49c2.36-.78,4.45-2.65,5.96-4.58,1.59-2.02,3.55-5,2.35-7.63-.92-2.02-3.46-2.68-5.47-2.18-2.73.67-4.15,3.41-5.18,5.77-.32.74-.22,1.61.54,2.05.63.37,1.73.21,2.05-.54h0Z"/>
        <path d="M238.06,51.16c-1.55,3.7-3.1,7.39-4.66,11.09l2.89.8c.57-2.75,1.57-5.37,3.03-7.78.59-.98,1.23-1.93,2.16-2.48.36-.21.88-.39,1.2-.39.14,0,.27,0,.41,0q.11,0,0,0l.16.04s.42.16.24.07c.14.07.28.16.41.26.66.48,1.67.11,2.05-.54.44-.76.12-1.57-.54-2.05-1.3-.94-3.1-.99-4.56-.41-1.56.62-2.7,1.84-3.62,3.21-1.86,2.76-3.14,6-3.82,9.26-.17.79.23,1.62,1.05,1.85.87.24,1.53-.3,1.85-1.05,1.55-3.7,3.1-7.39,4.66-11.09.31-.75-.34-1.65-1.05-1.85-.87-.24-1.53.3-1.85,1.05h0Z"/>
        <path d="M246.77,51.97c-1.08,1.35-2.14,2.7-2.72,4.35-.54,1.51-.47,3.17.2,4.62s2.04,2.44,3.65,2.59c1.69.16,3.24-.78,4.47-1.85s2.29-2.41,3.2-3.74,1.56-2.96,1.4-4.6-.86-3.11-2.28-3.92c-1.61-.92-3.51-.64-5.13.09-3.18,1.42-5.53,4.69-6.23,8.06-.16.79.23,1.62,1.05,1.85.74.2,1.68-.25,1.85-1.05.44-2.11,1.58-4.03,3.21-5.29.89-.69,1.96-1.25,2.94-1.25.34,0,.29-.01.61.09.4.14.15.07.11.05,0,0,.43.3.2.11.07.06.14.13.21.2.27.25-.06-.17.12.15.05.08.1.17.14.25.08.16.08.17.02.04.03.07.05.14.07.21.03.12.06.24.09.36.07.28.02.12.01.05.03.25.02.5.01.75,0,.44.08-.22-.03.2-.02.1-.04.19-.07.29-.09.33-.18.58-.33.87-.55,1.09-1.35,2.05-2.15,2.95-.72.81-1.63,1.7-2.47,2-.13.05-.26.08-.39.11-.26.06.31.01-.16.03-.11,0-.21,0-.32,0,.26.02-.25-.06-.25-.06-.3-.07-.15-.06-.07-.02-.13-.06-.25-.13-.36-.22.2.14.01,0-.02-.03-.07-.06-.13-.13-.19-.2.07.1.08.11.02.03-.07-.1-.13-.2-.19-.3-.03-.05-.18-.4-.09-.16-.1-.27-.18-.56-.22-.85.04.27,0-.05,0-.12,0-.17,0-.34,0-.52,0-.05.04-.29,0-.04.03-.2.08-.4.14-.59.36-1.23,1.25-2.36,2.06-3.38.51-.63.62-1.5,0-2.12-.52-.52-1.61-.64-2.12,0h0Z"/>
        <path d="M259.24,51.78c-.47,2.53-.95,5.07-1.42,7.6-.4,2.14-.71,4.33-1.35,6.42-.45,1.47-1.11,3.07-2.43,3.97-.54.37-1.09.58-1.74.46-.18-.03-.97-.3-.94-.48.13-.8-.21-1.61-1.05-1.85-.71-.2-1.72.24-1.85,1.05-.4,2.49,1.62,4.18,3.99,4.31s4.47-1.67,5.62-3.64c1.24-2.13,1.71-4.59,2.16-6.98.63-3.36,1.26-6.72,1.89-10.08.35-1.89-2.54-2.7-2.89-.8h0Z"/>
        <path d="M264.77,54.09c.11,1.82,1.77,2.51,3.39,2.2,1.45-.28,2.74-1.44,3.77-2.43,1.19-1.13,2.57-2.6,2.74-4.3s-1.04-3.09-2.65-3.47c-3.4-.8-5.84,2.96-7.13,5.54-1.48,2.95-1.82,6.49.34,9.21,1.14,1.44,2.91,2.24,4.74,2.15,2.03-.1,3.89-1.04,5.62-2.03s.17-3.55-1.51-2.59-3.99,2.34-5.81,1.23c-1.39-.84-1.83-2.82-1.51-4.37.41-2,1.63-4.07,3.06-5.52.28-.28.58-.53.95-.67.21-.08.47-.09.68,0-.12-.05.4.21.21.12.2.09.05.15.05-.02.02.41-.28.78-.51,1.1-.7.94-1.6,1.81-2.55,2.5-.25.18-.51.37-.78.52,0,0-.22.1-.09.05.14-.05-.22.06-.25.06-.05.01-.28.02-.05.01-.09,0-.2-.01-.29,0,.24-.03.11.03.01-.02.3.19.56.32.59.74-.05-.81-.66-1.5-1.5-1.5-.78,0-1.55.69-1.5,1.5h0Z"/>
        <path d="M284.03,47.9c-3.84,1.36-6.91,4.6-7.95,8.57-.27,1.05-.54,2.3-.15,3.34.47,1.25,1.68,1.77,2.9,2.05,1.94.44,4.03.33,5.9-.33,2.21-.78,4.08-2.17,5.43-4.09.46-.66.12-1.67-.54-2.05-.75-.44-1.59-.13-2.05.54-.74,1.06-1.83,1.92-3.15,2.53-1.19.55-2.61.77-4.05.64-.25-.02-.43-.05-.82-.15-.14-.03-.97-.25-.94-.32,0-.03.82.61.15.22-.03-.02-.02-.22-.03-.15.01-.06.03-.38.04-.51-.02.16.04-.22.05-.27.04-.22.09-.44.15-.66.35-1.35,1.04-2.68,1.92-3.7.53-.62,1.2-1.24,1.75-1.63.37-.26.75-.49,1.15-.7.44-.23.6-.3,1.03-.45.76-.27,1.27-1.02,1.05-1.85-.2-.74-1.08-1.32-1.85-1.05h0Z"/>
        <path d="M294.74,38.65c-3.16,7.17-5.38,14.68-6.55,22.43-.12.81.2,1.6,1.05,1.85.71.2,1.72-.25,1.85-1.05,1.13-7.47,3.2-14.79,6.25-21.71.77-1.75-1.81-3.28-2.59-1.51h0Z"/>
        <path d="M288.06,49.12c3.33-.44,6.66-.87,9.99-1.31.77-.1,1.54-.62,1.5-1.5-.03-.73-.67-1.61-1.5-1.5-3.33.44-6.66.87-9.99,1.31-.77.1-1.54.62-1.5,1.5.03.73.67,1.61,1.5,1.5h0Z"/>
        <path d="M262.86,43.45c1.93,0,1.93-3,0-3s-1.93,3,0,3h0Z"/>
        <path d="M308.42,35.95c-3.3,6.47-5.81,13.31-7.43,20.39-.43,1.88,2.46,2.68,2.89.8,1.56-6.83,3.94-13.43,7.13-19.67.88-1.72-1.71-3.24-2.59-1.51h0Z"/>
        <path d="M301.56,71.84l.44-.87c.11-.17.17-.36.18-.56.04-.2.04-.4-.03-.6-.05-.2-.14-.37-.27-.51-.11-.16-.25-.29-.42-.39l-.36-.15c-.27-.07-.53-.07-.8,0l-.36.15c-.23.13-.4.31-.54.54l-.44.87c-.11.17-.17.36-.18.56-.04.2-.04.4.03.6.05.2.14.37.27.51.11.16.25.29.42.39l.36.15c.27.07.53.07.8,0l.36-.15c.23-.13.4-.31.54-.54h0Z"/>
      </g>
      <path class="cls-2" d="M7.9,17.17c3.35,7.98,6.98,15.82,10.91,23.53.88,1.72,3.47.2,2.59-1.51-3.82-7.47-7.36-15.08-10.61-22.81-.32-.75-.99-1.27-1.85-1.05-.71.19-1.36,1.1-1.05,1.85h0Z"/>
      <path class="cls-2" d="M13.94,40.83c1.49.96,3.07,1.74,4.72,2.38.79.31,1.64.68,2.51.64,1.07-.05,1.91-.79,2.17-1.82.21-.85.26-1.76.39-2.62.13-.92.27-1.85.4-2.77.28-1.92.56-3.85.83-5.77.12-.8-.2-1.61-1.05-1.85-.7-.19-1.73.24-1.85,1.05-.47,3.23-.93,6.46-1.4,9.7-.06.38-.11.77-.17,1.15-.02.12-.07.27-.08.39-.03.43.53-.57.58-.46.09.01.08,0-.02-.01-.08-.02-.16-.04-.24-.07-.17-.05-.33-.11-.49-.17-.33-.12-.65-.24-.98-.37-1.33-.53-2.6-1.23-3.81-2-.68-.44-1.66-.14-2.05.54-.42.73-.15,1.61.54,2.05h0Z"/>
      <path class="cls-2" d="M308.07,107.43c5.98-2.33,9.12-8.17,10.15-14.24.93-5.48,1.32-14.31-5.76-15.82-1.88-.4-2.69,2.49-.8,2.89,5.43,1.16,4.29,9.07,3.51,13-.92,4.6-3.25,9.47-7.9,11.28-1.78.69-1.01,3.6.8,2.89h0Z"/>
      <path class="cls-2" d="M311.58,88.14c.02-4.22.05-8.44.07-12.66l-2.26,1.3c2.02,1.28,4.07,2.49,6.16,3.65,1.69.94,3.2-1.65,1.51-2.59-2.09-1.16-4.14-2.38-6.16-3.65-.98-.62-2.25.19-2.26,1.3-.02,4.22-.05,8.44-.07,12.66-.01,1.93,2.99,1.93,3,0h0Z"/>
      <path class="cls-2" d="M313.56,1.11c-2.56,6.41-4.61,13.01-6.12,19.75-.42,1.88,2.47,2.68,2.89.8,1.51-6.74,3.56-13.34,6.12-19.75.3-.76-.33-1.64-1.05-1.85-.85-.24-1.55.3-1.85,1.05h0Z"/>
      <path class="cls-2" d="M305.63,13.32c.01,3.54.02,7.08.04,10.62,0,1.03.95,1.63,1.9,1.45,3.01-.6,5.59-2.35,7.43-4.78.49-.65.1-1.68-.54-2.05-.77-.45-1.56-.11-2.05.54.1-.13-.18.22-.17.21-.11.13-.22.25-.33.37-.19.2-.38.39-.58.58-.45.41-.76.64-1.33,1-1.07.66-1.95.99-3.22,1.24l1.9,1.45c-.01-3.54-.02-7.08-.04-10.62,0-.81-.69-1.5-1.5-1.5s-1.5.69-1.5,1.5h0Z"/>
      <path class="cls-2" d="M42.57,101.68c5.41-5.14,11.15-9.91,17.21-14.27.66-.47.97-1.31.54-2.05-.38-.65-1.39-1.01-2.05-.54-6.26,4.51-12.22,9.43-17.82,14.74-1.4,1.33.72,3.45,2.12,2.12h0Z"/>
      <path class="cls-2" d="M51.19,86.74c2.8-.05,5.58-.41,8.3-1.08l-1.9-1.45c-.24,5.6-.1,11.2.42,16.78.08.81.64,1.5,1.5,1.5.75,0,1.58-.69,1.5-1.5-.52-5.58-.66-11.18-.42-16.78.04-1-.99-1.67-1.9-1.45-2.47.6-4.96.92-7.5.97-1.93.03-1.93,3.03,0,3h0Z"/>
    </g>
  </g>
</svg>