<?xml version="1.0" encoding="UTF-8"?>
<svg id="Layer_2" data-name="Layer 2" xmlns="http://www.w3.org/2000/svg" viewBox="0 0 74.41 80.42">
  <defs>
    <style>
      .cls-1 {
        fill: #544575;
      }

      .cls-2 {
        fill: none;
        stroke: #000;
        stroke-miterlimit: 10;
      }

      .cls-3 {
        fill: #517a4d;
      }
    </style>
  </defs>
  <g id="Layer_1-2" data-name="Layer 1">
    <g>
      <g>
        <rect class="cls-2" x="10.31" y="9.8" width="59.86" height="60.61" rx="5" ry="5"/>
        <path d="M19.28,27.94c.17,7.47.11,14.95-.18,22.41-.08,1.93,2.92,1.93,3,0,.29-7.47.35-14.94.18-22.41-.04-1.93-3.04-1.93-3,0h0Z"/>
        <path d="M20.77,28.76c2.41.4,4.75.05,7.17-.03,1.76-.06,3.81.04,5.23,1.24,1.25,1.05,1.76,2.89,1.19,4.42s-2.05,2.54-3.65,2.62c-1.39.08-2.8-.04-4.19-.04s-2.91.02-4.36.08c-1.92.07-1.93,3.07,0,3,1.45-.05,2.91-.08,4.36-.08s2.9.14,4.34.03c2.46-.18,4.73-1.48,5.91-3.69s1.07-4.82-.19-6.91c-1.34-2.22-3.7-3.27-6.19-3.58-2.93-.36-5.9.52-8.81.04-.8-.13-1.61.21-1.85,1.05-.2.72.24,1.71,1.05,1.85h0Z"/>
        <path d="M20.72,51.64c5.62-.25,12.8,2.4,17.09-2.73,1.81-2.17,2.29-5.04.9-7.57s-4.16-3.87-6.91-4.42c-1.89-.37-2.69,2.52-.8,2.89,2.02.4,4.2,1.19,5.18,3.16.86,1.72.06,3.56-1.36,4.69-1.75,1.4-4.14,1.56-6.28,1.47-2.61-.1-5.19-.61-7.82-.49-1.92.09-1.93,3.09,0,3h0Z"/>
        <path d="M43.12,44.11c4.7.3,9.37-.75,14.07-.32.81.07,1.5-.74,1.5-1.5,0-.87-.69-1.43-1.5-1.5-4.7-.43-9.37.62-14.07.32-.81-.05-1.5.73-1.5,1.5,0,.86.69,1.45,1.5,1.5h0Z"/>
        <path d="M58.1,42.57c.52-1.9.77-3.89-.41-5.61-.95-1.38-2.38-2.3-3.96-2.82-3-.99-6.52-.34-8.92,1.72-2.74,2.34-3.09,6.18-3,9.56.05,1.74.36,3.54,1.72,4.76s3.46,1.73,5.31,1.95c2.1.25,4.33.03,6.31-.72s3.84-2.47,3.22-4.84c-.49-1.86-3.39-1.07-2.89.8.23.88-1.5,1.3-2.07,1.46-1.36.38-2.77.48-4.18.35-1.14-.11-2.58-.37-3.52-1.07-.87-.65-.88-1.81-.91-2.79-.05-2.24-.07-5.01,1.55-6.77,1.34-1.46,3.45-2.05,5.39-1.79,1.11.15,2.25.6,3.05,1.4,1.06,1.06.77,2.3.41,3.62-.51,1.87,2.39,2.66,2.89.8h0Z"/>
        <path d="M45.49,31.16c3.35.34,6.72.44,10.09.33.81-.03,1.5-.67,1.5-1.5s-.69-1.53-1.5-1.5c-3.37.12-6.74,0-10.09-.33-.81-.08-1.5.75-1.5,1.5,0,.88.69,1.42,1.5,1.5h0Z"/>
        <path d="M20.5,27.89c.15,3.47.21,6.95.18,10.42-.01,1.7-.05,3.41-.11,5.11-.03.82-.06,1.63-.1,2.45-.02.41-.04.82-.06,1.23-.01.27-.03.54-.04.82-.16.88.28.73,1.34-.44l.9.69-.09-.13.15,1.16-.66.7-1.16-.15.16.1c1.64,1.03,3.15-1.56,1.51-2.59-.98-.62-2.36-.18-2.72.95s.51,2.23,1.65,2.27c1.31.05,1.81-1.05,1.89-2.15.1-1.36.15-2.72.2-4.08.21-5.45.19-10.9-.04-16.35-.08-1.92-3.08-1.93-3,0h0Z"/>
        <path d="M22.92,29.88c2.89-.01,6.13-.65,8.63.96,2.04,1.31,2.34,4.16.7,5.92-1.32,1.41.8,3.53,2.12,2.12,2.61-2.79,2.61-7.43-.41-9.96s-7.23-2.05-11.04-2.04c-1.93,0-1.93,3.01,0,3h0Z"/>
        <path d="M23.71,41.88c1.78-.26,3.56-.51,5.37-.49,1.42.01,3.28.11,4.48.98.96.7,1.15,2.17.99,3.13-.21,1.25-.81,2.21-1.9,2.75-.73.36-.93,1.39-.54,2.05.43.74,1.32.9,2.05.54,3.6-1.77,4.59-7.29,1.9-10.24-1.5-1.65-4.04-2.06-6.15-2.19-2.34-.14-4.69.23-7,.57-.8.12-1.24,1.13-1.05,1.85.24.86,1.04,1.17,1.85,1.05h0Z"/>
        <path d="M22.88,50.8c1.83-.39,3.75-.12,5.59.08,2,.21,3.98.33,5.96-.15.79-.19,1.26-1.08,1.05-1.85-.22-.8-1.05-1.24-1.85-1.05-1.82.44-3.73.19-5.57,0-2.01-.21-3.98-.35-5.98.07-.79.17-1.25,1.1-1.05,1.85.23.82,1.05,1.22,1.85,1.05h0Z"/>
        <path d="M44.53,44.85c4.52-.05,9.02-.46,13.48-1.19.8-.13,1.25-1.12,1.05-1.85-.23-.85-1.04-1.18-1.85-1.05-4.19.69-8.44,1.03-12.69,1.08-1.93.02-1.93,3.02,0,3h0Z"/>
        <path d="M55.77,47.9l2.69-.22-1.06-2.56c-.05.06-.11.11-.16.17-.27.28-.44.67-.44,1.06,0,.37.16.81.44,1.06s.66.46,1.06.44.78-.15,1.06-.44c.05-.06.11-.11.16-.17.17-.18.32-.42.39-.66.09-.33.05-.67-.08-.98-.1-.25-.25-.44-.46-.6-.25-.19-.59-.35-.91-.32l-2.69.22c-.4.03-.77.14-1.06.44-.26.26-.46.69-.44,1.06s.14.79.44,1.06c.28.26.67.47,1.06.44h0Z"/>
        <path d="M46.02,34.56c-1.87,1.26-3.08,3.06-3.9,5.14s-1.38,4.61-.95,6.85c.96,4.97,6.95,6.38,11.25,5.99,2.79-.26,4.65-1.97,6.38-4.03.52-.62.61-1.51,0-2.12-.53-.53-1.6-.62-2.12,0-.68.81-1.37,1.68-2.23,2.32s-1.8.86-2.88.88c-2.16.04-4.66-.15-6.32-1.72s-1.3-3.79-.75-5.81c.51-1.87,1.38-3.78,3.03-4.9s.09-3.68-1.51-2.59h0Z"/>
        <path d="M55.03,47.02c.01.34.04.26-.09.56.07-.17-.15.23-.15.22.08-.11-.06.07-.08.09-.36.4-.69.57-1.24.72-1.19.32-2.63.29-3.85.16-1-.11-1.62-.67-2.18-1.58-.65-1.08-.96-2.19-.83-3.42.08-.81-.75-1.5-1.5-1.5-.88,0-1.42.69-1.5,1.5-.18,1.84.43,3.74,1.45,5.26.51.76,1.11,1.46,1.89,1.96s1.74.7,2.67.79c1.71.16,3.7.15,5.32-.5,1.73-.7,3.15-2.3,3.09-4.26-.03-.81-.67-1.5-1.5-1.5s-1.53.69-1.5,1.5h0Z"/>
        <path d="M54.39,46.24s-.08.39-.12.4c.02,0,.13-.26.02-.04-.03.07-.07.14-.11.2s-.08.13-.12.2c0,.01-.22.29-.08.13.12-.15-.04.04-.07.07-.05.06-.1.11-.16.17s-.11.11-.17.16c-.03.02-.21.2-.07.07s-.05.03-.08.06c-.06.04-.13.09-.19.13-.13.08-.27.16-.4.23-.03.01-.26.13-.12.06.16-.07-.21.08-.2.07-.35.12-.7.21-1.06.28-.09.02-.18.03-.27.04.15-.02.12-.01-.01,0-.18.02-.37.03-.55.04-.85.04-1.7,0-2.54-.09-.78-.09-1.53.75-1.5,1.5.04.89.66,1.4,1.5,1.5,1.85.21,3.88.2,5.62-.52s3.15-2.01,3.59-3.85c.18-.76-.24-1.66-1.05-1.85s-1.65.23-1.85,1.05h0Z"/>
        <path d="M45.35,43.29c.21-1.4.61-2.87,1.42-4.05.68-.98,1.91-1.41,3.08-1.57s2.38.02,3.31.74c.8.62,1.21,1.55,1.11,2.56-.07.81.74,1.5,1.5,1.5.87,0,1.43-.69,1.5-1.5.16-1.76-.7-3.56-2.02-4.7-1.49-1.27-3.47-1.79-5.4-1.6s-3.9.86-5.15,2.36-1.97,3.54-2.25,5.46c-.12.8.2,1.61,1.05,1.85.71.19,1.73-.24,1.85-1.05h0Z"/>
        <path d="M58.87,41.73c.26-1.95.12-3.89-1.45-5.28-1.47-1.3-3.2-2.56-5.17-2.94-3.96-.77-7.63,1.35-9.17,5.01-.31.75.34,1.65,1.05,1.85.87.24,1.53-.3,1.85-1.05.9-2.13,3.41-3.4,5.7-2.87,1.32.3,2.44,1.13,3.46,1.98.42.35.75.66.84,1.21.11.68-.02,1.42-.1,2.09-.11.8.76,1.5,1.5,1.5.9,0,1.39-.69,1.5-1.5h0Z"/>
        <path d="M57.45,45.01l-1.6,1.98c-.15.14-.25.3-.31.48-.09.18-.14.37-.13.58,0,.21.04.4.13.58.06.19.16.35.31.48.29.26.66.46,1.06.44l.4-.05c.25-.07.47-.2.66-.39.62-.5,1.14-1.12,1.57-1.79l-2.8-.76v.03c.01-.13.03-.27.05-.4-.03.19-.08.37-.15.55l.15-.36c-.08.18-.17.34-.29.49l.23-.3c-.08.1-.17.19-.26.28l2.36,1.82c.26-.36.52-.73.78-1.09.11-.17.17-.36.18-.56.04-.2.04-.4-.03-.6-.05-.2-.14-.37-.27-.51-.11-.16-.25-.29-.42-.39-.35-.18-.77-.28-1.16-.15l-.36.15c-.23.13-.4.31-.54.54-.26.36-.52.73-.78,1.09-.11.17-.17.36-.18.56-.04.2-.04.4.03.6l.15.36c.09.17.22.32.39.42.09.09.2.16.33.19.18.09.37.14.58.13l.4-.05c.25-.07.47-.2.66-.39.19-.17.34-.38.5-.58.08-.11.16-.23.22-.35.12-.23.22-.47.3-.71s.1-.51.13-.77l-.05-.4c-.05-.2-.14-.37-.27-.51-.07-.11-.16-.2-.27-.27-.14-.13-.31-.22-.51-.27-.26-.06-.53-.06-.8,0-.37.09-.69.38-.9.69-.1.15-.21.31-.32.45l.23-.3c-.3.38-.64.73-1.01,1.03l2.12,2.12,1.6-1.98c.15-.14.25-.3.31-.48.09-.18.14-.37.13-.58,0-.21-.04-.4-.13-.58-.06-.19-.16-.35-.31-.48-.29-.26-.66-.46-1.06-.44l-.4.05c-.25.07-.47.2-.66.39h0Z"/>
      </g>
      <path class="cls-1" d="M11.14,69.03c-.99-1.69-1.74-3.48-2.25-5.38-.24-.9-.44-1.83-.56-2.76-.05-.38-.09-.79-.05-1.18-.02.22.06-.21.06-.23-.05.12-.04.1.05-.05-.02.05-.05.09-.1.12-.14.05-.13.05.04,0-.16.03-.15.04.03.03h-.11c.17.05.19.06.06,0,.09.05.18.1.26.16-.11-.07-.1-.05.04.07-.13-.23.21.41.13.23.35.8.32,1.61.38,2.49.17,2.26.17,4.52.04,6.78-.05.81.72,1.5,1.5,1.5.85,0,1.45-.69,1.5-1.5.13-2.15.13-4.3-.01-6.44-.13-1.98-.18-4.33-1.94-5.63s-4.1-.63-4.76,1.44c-.3.94-.16,1.94-.02,2.9s.31,1.85.55,2.76c.57,2.16,1.45,4.26,2.57,6.19.97,1.67,3.57.16,2.59-1.51h0Z"/>
      <path class="cls-1" d="M11.92,69.26c-.93-1.63-2.16-3.11-3.62-4.29-.75-.61-1.54-1.17-2.39-1.64-.92-.51-1.99-1.08-3.07-1.06-2.62.04-3.56,3.14-2.27,5.11,1.08,1.64,3,2.76,4.82,3.38,2.09.71,4.45.64,6.38-.49.68-.4.98-1.37.54-2.05s-1.33-.96-2.05-.54c-.14.09-.29.16-.44.24-.22.11.19-.07-.03.02-.07.02-.13.05-.2.07-.15.05-.31.1-.47.13-.09.02-.18.03-.27.06-.22.06.21-.01-.02,0-.33.02-.66.04-.99.02-.08,0-.51-.05-.24-.01-.19-.03-.38-.06-.57-.11-.33-.07-.66-.17-.98-.29-.09-.03-.18-.07-.28-.1.06.02.23.1-.05-.02-.18-.08-.36-.17-.53-.26-.3-.16-.6-.34-.88-.53-.06-.04-.12-.08-.18-.13-.03-.02-.27-.2-.14-.1.12.09-.07-.06-.08-.06-.09-.08-.19-.16-.28-.24-.13-.11-.24-.24-.36-.36,0,0-.16-.19-.07-.07.1.13-.07-.11-.09-.14-.05-.08-.19-.45-.12-.22-.02-.06-.03-.14-.05-.2-.07-.18.06.26,0-.03-.02-.11.08-.23-.01.03.02-.05.02-.13.05-.18.12-.18-.13.2,0,.02.09-.14-.05.05-.07.06l.04-.04c.08-.08.05-.06-.08.04.17-.02.02-.04.03-.03l-.07.03c-.11,0-.11,0,0,0,.09,0,.11,0,.04,0-.07-.01-.05,0,.04.01.38.08.45.13.81.31.33.16.66.33.98.52.3.17.59.36.88.56.42.29.4.28.76.57.61.51,1.17,1.07,1.68,1.67.35.41.33.39.62.81.24.35.46.7.67,1.07.39.68,1.38.97,2.05.54s.96-1.32.54-2.05h0Z"/>
      <path class="cls-1" d="M10.4,70.03c-3.84-.43-7.56,3.13-6.93,7.01.31,1.91,1.95,3.58,3.99,3.36,2.16-.23,3.78-1.92,4.23-4,.26-1.19.22-2.39.13-3.6s-.18-2.34.11-3.38c.21-.75-.26-1.67-1.05-1.85s-1.62.24-1.85,1.05c-.49,1.76-.21,3.51-.15,5.29.01.39.01.79-.02,1.18-.02.27-.07.57-.2.98-.1.31-.15.42-.39.74.14-.2-.06.05-.12.11-.06.06-.13.13-.2.19.11-.1.08-.05-.02.01-.08.05-.16.09-.23.14-.01,0-.21.11-.06.04.16-.08-.09.03-.13.04-.06.02-.13.03-.19.05-.1.03-.24,0,.01,0-.03,0-.17.03-.19,0-.06-.06-.03,0,.08.03-.11-.02-.21-.06-.32-.08-.22-.05.19.1,0,0-.05-.03-.1-.06-.16-.1.25.15,0-.06-.1-.12-.12-.08.03.03.05.07-.03-.06-.08-.14-.13-.21-.01-.02-.12-.2-.03-.04.09.18-.04-.12-.06-.17-.04-.14-.06-.29-.1-.43-.04-.17.01.06.01.08,0-.08-.01-.17-.01-.26,0-.13,0-.26.01-.38.01-.29,0-.04,0,.02.02-.08.03-.16.05-.25.04-.15.09-.3.14-.45.08-.22-.1.19,0-.02.03-.06.06-.12.09-.18.07-.14.16-.28.25-.41.04-.06.08-.11.12-.17-.16.22.03-.03.07-.07.12-.14.25-.27.39-.39.05-.05.1-.09.15-.14.32-.28-.12.08.08-.06.15-.1.31-.2.47-.29.06-.03.12-.07.18-.1,0,0,.36-.15.2-.09-.15.06.06-.02.08-.02.11-.03.22-.07.33-.1.07-.02.13-.04.2-.05,0,0,.4-.08.2-.05-.17.03.05,0,.07,0,.11,0,.23-.01.34-.02.21,0,.41.01.61.04.78.09,1.53-.75,1.5-1.5-.04-.89-.66-1.41-1.5-1.5h0Z"/>
      <path class="cls-1" d="M9.75,69.94c.15,1.8.71,3.56,1.71,5.08s2.33,2.84,3.94,3.63c1.13.56,2.53.64,3.4-.41.71-.85.84-1.94.67-3.01-.25-1.66-1.17-3.23-2.38-4.38-1.47-1.39-3.4-2.24-5.43-2.29-.78-.02-1.54.7-1.5,1.5s.66,1.48,1.5,1.5c.16,0,.32.02.49.03.21.01-.29-.05-.08-.01.09.02.18.03.26.05.32.06.63.15.93.26.04.02.17.08.2.08-.03,0-.32-.15-.06-.02.13.06.26.12.39.19.14.08.28.16.42.25.06.04.12.08.18.12.04.02.34.23.15.1-.17-.12.02.02.06.05.06.05.11.09.16.14.12.11.24.22.35.33.1.1.2.21.29.32.05.05.09.11.14.16.24.28-.18-.26.03.04.18.25.34.51.48.78.07.13.18.29.21.44,0-.03-.12-.32-.03-.06.03.08.06.17.09.25.02.07.27.87.22.89s-.02-.36-.02-.12c0,.06,0,.13,0,.19,0,.08-.02.17-.01.24.01.17.08-.32,0-.06l-.02.09c-.04.12-.04.12.01,0,.15-.15.02-.02-.02.02-.13.14.22-.22.08-.09s.34-.17.07-.05c.04-.02.35-.09.11-.05.11-.02.15-.02.28-.01-.04,0-.29-.09-.02.02-.12-.04-.23-.12-.34-.18-.27-.15-.52-.31-.77-.48-.08-.05-.15-.11-.23-.17-.17-.12.19.16.03.02-.14-.13-.29-.24-.43-.37-.24-.22-.46-.45-.68-.69-.1-.11-.22-.22-.29-.35.15.26.07.1.03.03-.07-.09-.13-.18-.2-.28-.22-.31-.41-.64-.59-.98-.09-.17-.17-.34-.25-.51s-.08-.03.02.04c-.04-.03-.1-.27-.12-.32-.12-.34-.23-.69-.31-1.04-.04-.19-.08-.37-.11-.56-.02-.11-.11-.32,0,0-.03-.1-.02-.24-.03-.34-.06-.78-.64-1.54-1.5-1.5-.76.03-1.57.66-1.5,1.5h0Z"/>
      <path class="cls-1" d="M11.74,70.69c.3-1.48.69-2.95,1.15-4.38.12-.37.24-.73.37-1.09.06-.16.12-.32.18-.48.03-.07.06-.15.08-.22.09-.24-.08.16.03-.07.13-.28.27-.56.44-.82.09-.14.01-.04,0,0,.06-.08.13-.16.2-.23.05-.05.1-.1.15-.14.17-.15-.16.1.03-.02.06-.04.12-.07.18-.11.02-.01.22-.09.07-.04-.18.06.36-.07.15-.04-.19.02.32.05.14,0s.07.04.07.03c-.03-.05-.16-.1,0,.02-.22-.17.08.08.15.15.11.13-.02-.02-.03-.04.04.06.07.12.11.17s.06.12.1.18c-.01-.02-.08-.2-.02-.04s.1.31.13.47c.02.09.04.42.03.17,0,.14.02.28.02.43,0,.09,0,.19-.01.28,0,.02-.02.25,0,.08s-.01.06-.01.08c-.02.09-.04.18-.06.28-.07.28-.15.55-.26.81.09-.22-.05.11-.09.17-.08.15-.16.3-.25.45-.19.32-.4.64-.63.94.02-.03.11-.14,0,0-.06.08-.13.16-.2.24-.12.14-.24.27-.36.4-.52.56-1.08,1.07-1.68,1.54s-.55,1.61,0,2.12c.65.6,1.47.53,2.12,0,2.59-2.09,4.98-5.19,4.27-8.71-.37-1.87-1.94-3.45-3.94-3.18s-3.12,2.01-3.8,3.77c-.75,1.96-1.31,3.98-1.73,6.03-.16.77.22,1.66,1.05,1.85.75.17,1.68-.23,1.85-1.05h0Z"/>
      <path class="cls-1" d="M64.86,11.09c-.69-1.81-1.27-3.67-1.72-5.55-.1-.43-.2-.86-.29-1.3-.05-.25-.11-.62-.09-.82.02-.11.05-.22.08-.33-.05.12-.04.1.04-.06-.15.18.11-.22-.03,0,.16-.09.17-.1.04-.04-.13,0-.14,0-.04,0,.12,0,.09,0-.07,0-.16-.08-.16-.08,0,0-.13-.11-.13-.11,0,.01l.09.1c-.19-.21.12.23.16.28.2.33-.04-.19.09.18.06.16.11.32.15.48.22.81.38,1.65.48,2.49.22,1.82.21,3.71-.06,5.52-.12.8.2,1.61,1.05,1.85.71.19,1.72-.24,1.85-1.05.29-1.9.4-3.8.23-5.71-.15-1.74-.36-3.7-1.19-5.28s-2.76-2.5-4.34-1.39c-1.82,1.28-1.6,3.43-1.16,5.35.47,2.06,1.08,4.08,1.83,6.06.29.76,1.01,1.28,1.85,1.05.73-.2,1.34-1.08,1.05-1.85h0Z"/>
      <path class="cls-1" d="M67.06,12.49c.7-1.21,1.36-2.46,2.13-3.62.08-.12.17-.24.25-.36.1-.14-.03.04-.04.05.06-.06.11-.13.16-.19.1-.11.2-.21.31-.31.05-.04.09-.08.14-.13.27-.25-.14.06.04-.02.12-.06.24-.14.36-.21.09-.05.23-.05-.03.01.06-.01.11-.04.17-.05s.11-.03.17-.05c.29-.08-.03-.02-.05,0,.04-.02.46,0,.46,0-.01.04-.37-.1-.06,0,.05.02.11.04.16.05.17.05-.1-.03-.1-.04-.02.02.18.08.18.11,0,.02-.27-.27-.07-.05.03.03.07.09.1.11.14.09-.12-.09-.08-.11.02,0,.11.19.13.21.13.12-.07-.26-.03-.09.01.05.03.09.05.14.02.06.03.13.05.19.04.13.06.07,0,0-.07-.08,0-.13,0,0,0,.07,0,.14,0,.21s0,.14,0,.21c0,.25.02-.09.02-.09.03.02-.07.3-.08.35s-.03.1-.05.15c-.08.28.03-.07.03-.08,0,.1-.15.29-.2.37-.03.05-.07.1-.1.15-.2.31.12-.12-.02.03-.2.21-.38.42-.59.6-.11.09-.22.19-.33.28.24-.2-.11.08-.19.13-1.26.89-2.62,1.67-3.99,2.38-.7.37-.96,1.39-.54,2.05.46.71,1.31.93,2.05.54,1.42-.75,2.84-1.55,4.14-2.49s2.51-2.14,2.77-3.77-.34-3.55-2.01-4.26-3.6-.06-4.82,1.25c-.61.65-1.07,1.41-1.52,2.17-.51.88-1.02,1.76-1.54,2.65-.39.68-.18,1.67.54,2.05s1.63.19,2.05-.54h0Z"/>
      <path class="cls-1" d="M65.49,15.08c.32.08.63.17.95.28.08.03.15.06.23.08,0,0,.35.15.16.06-.17-.07.07.03.1.05.07.03.15.07.22.11.29.14.58.3.86.48.14.09.28.18.41.27.07.05.13.09.2.14.05.04.28.22.04.03.51.42.99.86,1.42,1.37.05.06.11.13.16.19.1.12.07.09,0-.01.11.15.22.3.32.45.19.29.37.59.53.9l-.2-.76c.03.24.06-.18.1-.26.07-.13.17-.22.3-.28.08-.04.17-.06.26-.04h-.14c.15.02.17.02.06-.01-.1-.03-.09-.03.03.02-.21-.1-.4-.23-.59-.37-.1-.07-.21-.15-.31-.22.17.12.06.04-.05-.04-.34-.28-.67-.58-.98-.89-.16-.17-.32-.34-.47-.51-.07-.08-.14-.16-.21-.24-.02-.03-.29-.36-.08-.09-.54-.7-1-1.47-1.37-2.27-.02-.04-.18-.43-.05-.1-.04-.1-.08-.2-.12-.29-.08-.22-.16-.44-.23-.66-.14-.44-.25-.89-.34-1.35-.15-.77-1.12-1.28-1.85-1.05-.82.27-1.21,1.02-1.05,1.85.6,3.1,2.38,5.99,4.87,7.92.84.66,1.75,1.32,2.87,1.3,1.19-.02,2.36-1.03,2.35-2.26,0-.86-.64-1.7-1.14-2.37s-1.04-1.28-1.68-1.82c-1.39-1.18-3.01-2.07-4.79-2.5-.76-.19-1.66.24-1.85,1.05s.23,1.65,1.05,1.85h0Z"/>
      <path class="cls-1" d="M64.07,12.72l-1.27,4.93c-.09.33-.16.67-.26,1-.04.15-.1.3-.15.46-.06.16-.06.15.02-.02-.03.07-.07.14-.1.22-.05.1-.11.21-.17.31-.04.06-.08.13-.13.19.12-.16.13-.17.02-.05-.12.11-.1.1.06-.02-.06.04-.12.08-.18.11.2-.07.22-.08.06-.03-.07.02-.14.04-.22.05l1.85,1.05c-.04-.17-.08-.34-.11-.52,0,0-.07-.4-.04-.19.03.18,0-.1-.01-.13-.04-.37-.05-.75-.04-1.12,0-.18.01-.35.03-.53,0-.09.02-.18.03-.26-.03.31,0,0,.01-.06.06-.37.15-.74.25-1.1.05-.17.1-.34.16-.5.03-.08.06-.17.09-.25.05-.13.06-.14,0,0,.15-.34.32-.68.51-1,.1-.17.21-.34.32-.5.05-.07.1-.14.15-.22.08-.11.1-.12,0-.01.26-.3.52-.6.81-.87.57-.54.59-1.58,0-2.12s-1.51-.58-2.12,0c-2.71,2.58-3.83,6.56-2.94,10.18.21.84,1.06,1.18,1.85,1.05,1.74-.3,2.57-2.1,2.97-3.63.49-1.86.96-3.73,1.43-5.59.19-.76-.25-1.66-1.05-1.85s-1.64.23-1.85,1.05h0Z"/>
      <path class="cls-1" d="M65.28,11.11c-1.52.12-2.74.87-4.04,1.6-.23.13-.49.31-.75.39.36-.11-.07.02-.16.05-.16.05-.32.1-.48.13-.06.01-.28.08-.07.02s0,0-.07,0c-.14.01-.28,0-.42,0-.16,0,.12.01.14.02-.04-.02-.15-.03-.2-.04,0,0-.19-.04-.2-.06.18.08.22.1.12.05-.05-.02-.09-.05-.14-.08-.24-.12.18.2-.03-.02-.04-.04-.07-.08-.11-.12-.14-.11.17.27.09.12-.03-.06-.19-.39-.09-.13s-.03-.12-.05-.19c-.07-.23.02.39,0,0,0-.1,0-.19,0-.28,0-.34-.08.33,0-.01.03-.12.06-.25.1-.37,0-.03.06-.13.06-.16,0,.03-.16.34-.05.12.05-.1.1-.21.16-.31.05-.09.12-.17.17-.25.09-.16-.21.23-.07.1.05-.05.1-.11.15-.16.07-.07.21-.15.25-.23-.09.17-.24.17-.1.08.05-.03.09-.06.14-.09.1-.06.22-.14.34-.17-.05.01-.29.1-.02.02.1-.03.19-.06.29-.09.14-.04.38-.14.53-.11-.03,0-.35.03-.04.01.1,0,.2-.01.3-.02.37-.01.74,0,1.11.05.05,0,.31.04.11.01-.22-.03.17.03.17.03.19.03.37.07.56.11.39.08.77.17,1.16.27.76.19,1.66-.24,1.85-1.05s-.23-1.65-1.05-1.85c-1.69-.41-3.41-.75-5.14-.42-1.47.28-2.81,1.21-3.46,2.57-.6,1.27-.79,2.86.05,4.08,1.07,1.56,3.04,1.87,4.76,1.31.84-.28,1.6-.72,2.36-1.16.19-.11.38-.22.57-.32.13-.07.37-.26.53-.26-.19,0-.17.06-.03.02.11-.04.22-.08.33-.11.09-.03.19-.05.28-.07.4-.09-.19,0,.12-.02.78-.06,1.54-.64,1.5-1.5-.03-.76-.66-1.57-1.5-1.5h0Z"/>
      <path class="cls-1" d="M7.07,60.34l2.28,6.74c.25.74,1.04,1.31,1.85,1.05.74-.24,1.32-1.05,1.05-1.85l-2.28-6.74c-.25-.74-1.04-1.31-1.85-1.05-.74.24-1.32,1.05-1.05,1.85h0Z"/>
      <path class="cls-1" d="M12.78,63.69c-.12.91-.31,1.82-.55,2.71-.12.44-.25.87-.4,1.3-.08.22-.16.44-.24.66-.04.09-.07.19-.11.28-.03.06-.05.12-.08.19.09-.2.1-.23.03-.08-.17.39-.27.73-.15,1.16.1.35.36.73.69.9.35.18.77.28,1.16.15.34-.11.75-.34.9-.69.8-1.85,1.38-3.76,1.65-5.77.06-.42.07-.77-.15-1.16-.18-.31-.54-.61-.9-.69-.38-.09-.81-.07-1.16.15-.3.2-.64.52-.69.9h0Z"/>
      <path class="cls-1" d="M16.78,73.91l-3.09-3.22c-.26-.27-.68-.44-1.06-.44s-.81.16-1.06.44c-.56.61-.58,1.52,0,2.12l3.09,3.22c.26.27.68.44,1.06.44s.81-.16,1.06-.44c.56-.61.58-1.52,0-2.12h0Z"/>
      <path class="cls-1" d="M8,78c.79-1.81,1.8-3.52,3.01-5.09.22-.29.24-.83.15-1.16-.1-.35-.36-.73-.69-.9-.35-.18-.77-.28-1.16-.15s-.64.36-.9.69c-1.21,1.57-2.22,3.28-3.01,5.09-.17.38-.27.73-.15,1.16.1.35.36.73.69.9.35.18.77.28,1.16.15.35-.11.74-.34.9-.69h0Z"/>
      <path class="cls-1" d="M3.96,63.87c-.64.09-1.14.71-1.31,1.29-.19.67.05,1.37.51,1.86.27.29.63.5.95.72.3.21.61.42.91.63,1.2.82,2.41,1.65,3.61,2.47.65.44,1.69.14,2.05-.54.4-.76.15-1.58-.54-2.05-.9-.62-1.8-1.23-2.7-1.85-.44-.3-.87-.6-1.31-.89-.23-.16-.46-.32-.7-.48-.06-.04-.12-.08-.17-.12-.12-.09-.09-.06.12.1-.04-.03-.08-.07-.11-.11.12.11.21.25.26.41l.05.4s0-.08,0-.12l-.05.4c.07-.25-.07-.13-.41.36-.5.32-.62.46-.37.41.34-.05.73-.41.9-.69.19-.32.27-.8.15-1.16s-.34-.71-.69-.9c-.38-.2-.73-.21-1.16-.15h0Z"/>
      <path class="cls-1" d="M61.63,4.16c.31,2.39.66,4.77,1.07,7.14.13.78,1.13,1.28,1.85,1.05.84-.27,1.19-1.01,1.05-1.85-.19-1.1-.37-2.2-.53-3.3-.08-.53-.16-1.06-.23-1.59-.04-.26-.08-.53-.11-.79.04.35-.02-.13-.03-.2-.02-.15-.04-.31-.06-.46-.05-.41-.13-.75-.44-1.06-.26-.26-.69-.46-1.06-.44-.73.03-1.61.67-1.5,1.5h0Z"/>
      <path class="cls-1" d="M61.32,12.21v-.05c0,.13.03.27.04.4,0-.03,0-.06,0-.09l-.05.4s.01-.06.02-.09l-.15.36s.04-.08.07-.12l-.23.3c.04-.05.09-.1.14-.14l-.3.23c.09-.06.18-.11.28-.16l-.36.15c.25-.1.52-.15.79-.21.32-.07.64-.15.96-.22.64-.15,1.28-.3,1.91-.44.77-.18,1.29-1.1,1.05-1.85-.26-.8-1.03-1.24-1.85-1.05-.96.22-1.91.44-2.87.67-.47.11-.95.21-1.37.47-.32.2-.58.45-.78.78-.27.45-.28.95-.19,1.45.06.35.39.72.69.9.32.19.8.27,1.16.15s.71-.34.9-.69c.2-.37.23-.74.15-1.16h0Z"/>
      <path class="cls-1" d="M68.56,14.13c.44-.99.98-1.94,1.6-2.82.07-.1.14-.2.21-.3.05-.06.09-.12.14-.18.12-.16-.02.04-.07.09.19-.18.35-.44.52-.64.36-.42.74-.81,1.13-1.19.57-.54.59-1.58,0-2.12s-1.52-.58-2.12,0c-1.67,1.61-3.06,3.54-4.01,5.66-.17.38-.27.74-.15,1.16.1.35.36.73.69.9.65.35,1.71.23,2.05-.54h0Z"/>
      <path class="cls-3" d="M10.84,68.34s-.01-.05-.02-.07l.03.2s0-.08,0-.12l-.03.2s.02-.08.03-.12l-.08.18s.03-.06.05-.09l-.12.15s.03-.04.05-.05l-.73.19c.07.01.14.03.2.06l-.18-.08c.07.03.13.07.2.12l-.15-.12c.05.04.1.09.15.15l-.12-.15c.04.05.08.11.1.18l-.08-.18c.02.06.04.12.05.18l-.03-.2c0,.05,0,.1,0,.15l.03-.2s-.02.08-.03.13l.08-.18s-.04.09-.07.12l.12-.15s-.07.08-.11.11l.15-.12c-.05.04-.1.07-.16.1l.18-.08s-.1.03-.15.04l.2-.03s-.09,0-.14,0l.2.03s-.08-.02-.12-.03l.18.08s-.07-.03-.1-.06l.15.12s-.04-.04-.06-.07l.12.15s-.03-.05-.04-.07l.08.18s-.02-.07-.03-.11l.03.2s0-.08,0-.13l-.03.2c0-.05.02-.1.04-.15l-.08.18s.04-.08.07-.12l-.12.15s.05-.06.09-.09l-.15.12s.05-.03.08-.05l-.18.08s.05-.02.08-.02l-.2.03s.06,0,.08,0l-.2-.03s.03,0,.05.01c.19.05.41.02.58-.08.16-.09.3-.27.34-.45.04-.19.03-.41-.08-.58s-.26-.29-.45-.34-.37-.05-.56,0c-.08.02-.17.06-.25.1-.05.03-.1.06-.15.1-.22.17-.38.4-.45.67-.02.09-.03.18-.04.27,0,.03,0,.06,0,.09.01.2.05.36.14.53s.22.28.37.39c.03.02.05.04.08.05.08.04.18.09.27.11.17.04.31.04.48.02.06,0,.13-.01.19-.03.09-.03.18-.07.27-.11.12-.05.23-.14.32-.23s.18-.19.24-.3c.31-.56.16-1.29-.31-1.71-.11-.1-.24-.2-.38-.27-.09-.04-.19-.09-.29-.12-.03,0-.05-.01-.08-.02,0,0-.02,0-.03,0-.1-.03-.2-.04-.3-.01-.07,0-.13.02-.19.05-.1.04-.2.1-.27.19-.05.06-.11.13-.15.2-.01.02-.02.04-.03.06-.03.07-.07.15-.09.23-.03.1-.04.22-.05.32,0,.06.01.12.02.17,0,.06.01.11.03.17.06.18.18.35.34.45s.4.13.58.08.36-.17.45-.34.14-.38.08-.58h0Z"/>
      <path class="cls-3" d="M8.5,61.72l.61,1.71c.07.19.17.35.34.45.16.09.4.13.58.08s.36-.17.45-.34.14-.39.08-.58l-.61-1.71c-.07-.19-.17-.35-.34-.45-.16-.09-.4-.13-.58-.08s-.36.17-.45.34-.14.39-.08.58h0Z"/>
      <path class="cls-3" d="M14.99,65.87c.03-.1.06-.2.1-.3l-.08.18c.08-.19.18-.36.31-.53l-.12.15c.09-.12.19-.23.3-.32.14-.12.22-.35.22-.53s-.08-.4-.22-.53-.33-.23-.53-.22l-.2.03c-.13.04-.24.1-.33.19-.22.19-.41.43-.56.67-.06.1-.11.2-.16.3-.07.16-.14.33-.19.5-.05.19-.02.41.08.58.09.16.27.3.45.34.19.04.41.03.58-.08s.29-.26.34-.45h0Z"/>
      <path class="cls-3" d="M13.46,72.93l1.15,1c.15.13.32.22.53.22.18,0,.4-.08.53-.22s.23-.33.22-.53-.07-.4-.22-.53l-1.15-1c-.15-.13-.32-.22-.53-.22-.18,0-.4.08-.53.22s-.23.33-.22.53.07.4.22.53h0Z"/>
      <path class="cls-3" d="M8.21,76.53c.23-.23.43-.49.61-.76s.31-.57.43-.87c.03-.1.04-.2.01-.3,0-.1-.03-.19-.09-.28-.09-.16-.27-.3-.45-.34-.19-.04-.41-.03-.58.08l-.15.12c-.09.09-.16.2-.19.33-.01.03-.02.05-.03.08l.08-.18c-.13.3-.3.59-.5.85l.12-.15c-.1.13-.21.25-.32.36-.14.14-.22.34-.22.53s.08.4.22.53.33.23.53.22.39-.08.53-.22h0Z"/>
      <path class="cls-3" d="M4.16,66.31c.49.47,1.07.81,1.71,1.02.18.06.42.02.58-.08s.3-.27.34-.45c.04-.19.03-.41-.08-.58s-.26-.28-.45-.34c-.1-.03-.19-.07-.28-.1l.18.08c-.28-.12-.55-.28-.8-.46l.15.12c-.1-.08-.2-.17-.3-.26-.14-.13-.33-.22-.53-.22-.18,0-.4.08-.53.22s-.23.33-.22.53.07.39.22.53h0Z"/>
      <path class="cls-3" d="M65.24,11.82s-.03,0-.05,0l.2-.03c-.07,0-.13,0-.2,0l.2.03c-.07-.01-.14-.03-.21-.06l.18.08c-.07-.03-.13-.06-.18-.11l.15.12c-.06-.04-.11-.09-.15-.15l.12.15s-.06-.1-.09-.15l.08.18c-.02-.05-.03-.1-.04-.15l.03.2s0-.09,0-.14l-.03.2c0-.05.02-.1.04-.15l-.08.18c.02-.05.05-.1.09-.14l-.12.15s.08-.08.12-.12l-.15.12s.1-.07.16-.09l-.18.08c.05-.02.1-.04.16-.04l-.2.03s.1,0,.15,0l-.2-.03s.08.02.11.03l-.18-.08s.07.03.1.06l-.15-.12s.05.05.08.08l-.12-.15s.04.06.05.09l-.08-.18s.03.09.04.14l-.03-.2c0,.05,0,.11,0,.16l.03-.2c0,.05-.02.11-.04.16l.08-.18s-.04.09-.07.13l.12-.15s-.05.05-.07.08l.15-.12s-.06.04-.09.05l.18-.08s-.06.02-.09.02l.2-.03s-.06,0-.09,0l.2.03s-.05-.01-.08-.02l.18.08s-.05-.02-.07-.04l.15.12s-.04-.03-.05-.05l.12.15s-.02-.02-.02-.04l.08.18s0-.03-.01-.04l.03.2s0-.03,0-.04l-.03.2s0-.02,0-.04l-.08.18s0-.01.01-.02l-.12.15s0,0,.01-.01l-.15.12s.02-.01.02-.01l-.18.08s.02,0,.04,0l-.2.03s.03,0,.04,0l-.2-.03s.04,0,.06.02l-.18-.08s.02.01.03.02l-.15-.12s.01.01.02.02l-.12-.15s0,0,0,.01l-.08-.18s0,0,0,.01l-.03-.2s0,.01,0,.02l.03-.2s0,.01,0,.02l.08-.18s0,.02-.01.03c-.05.09-.08.18-.09.28-.02.1-.02.2.01.3.05.17.18.36.34.45.17.09.38.14.58.08l.18-.08c.11-.07.2-.16.27-.27.08-.12.12-.3.12-.44,0-.22-.1-.42-.25-.57-.1-.1-.25-.18-.39-.22-.16-.05-.32-.04-.48,0-.14.03-.29.11-.39.22s-.19.25-.23.4c-.05.23-.02.45.09.66.07.13.16.22.27.3.19.15.45.25.69.22.1,0,.2-.02.29-.05s.18-.07.26-.12c.27-.19.49-.47.54-.8.04-.23.04-.37,0-.6,0-.04-.02-.07-.03-.11-.03-.09-.07-.19-.12-.27-.11-.16-.25-.32-.43-.4-.09-.04-.19-.09-.28-.11s-.22-.04-.32-.04c-.23,0-.41.06-.62.16-.04.02-.08.04-.11.07-.09.06-.18.13-.26.21-.16.17-.24.33-.32.54-.02.04-.03.09-.03.13-.02.11-.04.22-.03.33.02.23.07.46.2.65s.28.34.48.48c.05.03.1.06.15.08.1.05.21.1.32.12.25.06.46.05.71,0,.18-.03.36-.19.45-.34.09-.16.13-.4.08-.58s-.17-.36-.34-.45l-.18-.08c-.13-.04-.27-.04-.4,0h0Z"/>
      <path class="cls-3" d="M62.4,4.79l.31,1.43c.04.18.19.36.34.45s.4.13.58.08.36-.17.45-.34c.1-.18.12-.37.08-.58l-.31-1.43c-.04-.18-.19-.36-.34-.45s-.4-.13-.58-.08-.36.17-.45.34c-.1.18-.12.37-.08.58h0Z"/>
      <path class="cls-3" d="M60.72,13.9c.16-.17.34-.33.53-.48l-.15.12c.22-.17.46-.32.71-.45.16-.09.3-.27.34-.45s.03-.42-.08-.58-.26-.3-.45-.34c-.2-.05-.39-.02-.58.08-.23.12-.45.26-.66.42-.26.19-.5.39-.72.63-.13.14-.22.33-.22.53,0,.18.08.4.22.53s.33.23.53.22.39-.07.53-.22h0Z"/>
      <path class="cls-3" d="M64.49,17.06v-1c0-.19-.08-.39-.22-.53-.07-.07-.15-.12-.24-.16-.09-.05-.19-.07-.29-.06-.19,0-.4.07-.53.22s-.22.33-.22.53v1c0,.19.08.39.22.53.07.07.15.12.24.16.09.05.19.07.29.06.19,0,.4-.07.53-.22s.22-.33.22-.53h0Z"/>
      <path class="cls-3" d="M67.93,16.03l.86.72c.07.07.15.12.24.16.09.05.19.07.29.06.1,0,.2-.02.29-.06.09-.03.17-.08.24-.16.13-.14.23-.33.22-.53l-.03-.2c-.04-.13-.1-.24-.19-.33l-.86-.72c-.07-.07-.15-.12-.24-.16-.09-.05-.19-.07-.29-.06-.1,0-.2.02-.29.06-.09.03-.17.08-.24.16-.13.14-.23.33-.22.53l.03.2c.04.13.1.24.19.33h0Z"/>
      <path class="cls-3" d="M69.85,10.24l1-.72c.09-.05.16-.11.21-.19.07-.07.11-.16.13-.26.03-.1.04-.2.01-.3,0-.1-.03-.19-.09-.28-.1-.16-.26-.3-.45-.34s-.42-.04-.58.08l-1,.72c-.09.05-.16.11-.21.19-.07.07-.11.16-.13.26-.03.1-.04.2-.01.3,0,.1.03.19.09.28.1.16.26.3.45.34s.42.04.58-.08h0Z"/>
    </g>
  </g>
</svg>