<?xml version="1.0" encoding="UTF-8"?>
<svg id="Layer_2" data-name="Layer 2" xmlns="http://www.w3.org/2000/svg" viewBox="0 0 66.89 74.32">
  <defs>
    <style>
      .cls-1 {
        fill: #722243;
      }

      .cls-2 {
        fill: none;
        stroke: #000;
        stroke-miterlimit: 10;
      }
    </style>
  </defs>
  <g id="Layer_1-2" data-name="Layer 1">
    <g>
      <g>
        <rect class="cls-2" x="1.52" y="6.79" width="59.86" height="60.61" rx="5" ry="5"/>
        <path d="M14.49,31.33c.35,5.82.39,11.65.12,17.48-.09,1.93,2.91,1.93,3,0,.27-5.82.23-11.66-.12-17.48-.12-1.92-3.12-1.93-3,0h0Z"/>
        <path d="M17.38,31.22c-.18,5.68-.35,11.37-.53,17.05-.06,1.93,2.94,1.93,3,0,.18-5.68.35-11.37.53-17.05.06-1.93-2.94-1.93-3,0h0Z"/>
        <path d="M15.76,47.1c-.12.05-.23.15-.32.25-.05.05-.2.25-.24.31-.07.11-.13.24-.16.37-.02.09-.05.32-.05.41-.01.29.04.37.13.59.04.09.05.14.09.21l.23.3h.01c.05.07.12.11.18.16s.12.1.19.14c.09.05.28.13.38.16.02,0,.03,0,.05.01.11.03.31.05.42.06.11,0,.21.02.32.02.42.03.83.06,1.25.09.21,0,.4-.04.58-.13.19-.06.35-.16.48-.31.15-.14.25-.3.31-.48.09-.18.14-.37.13-.58-.02-.39-.14-.79-.44-1.06l-.3-.23c-.23-.14-.49-.2-.76-.2-.53-.04-1.06-.08-1.59-.12l.4.05s-.04,0-.06-.01l.36.15s-.03-.02-.05-.03l.3.23s-.03-.02-.04-.04l.23.3s-.01-.02-.02-.03l.15.36h0c.02.12.04.25.05.39h0c-.02.12-.04.25-.05.39h0c-.05.11-.1.23-.15.35h0c-.08.09-.16.19-.23.29h.01c-.1.07-.2.15-.3.23h.02c.17-.1.32-.23.42-.39.13-.14.22-.31.27-.51.06-.2.07-.4.03-.6,0-.2-.07-.39-.18-.56-.21-.32-.51-.6-.9-.69l-.4-.05c-.27,0-.52.07-.76.2h0Z"/>
        <path d="M17.76,29.9l-.29-.12-.4,2.95c.24,0,.48,0,.72,0s.46-.01.69,0l-.4-.05s.04,0,.07.01l-.36-.15s.03.01.04.02l-.3-.23h.02c-.08-.09-.16-.19-.23-.29,0,0,.01.02.02.03l-.15-.36h0c-.02-.12-.04-.25-.05-.38,0,.01,0,.02,0,.03l.05-.4s0,.02,0,.03l.15-.36s0,.02-.01.02l.23-.3h0c.1-.07.2-.15.3-.23h-.01c.12-.04.24-.09.36-.14h-.01c.13-.01.27-.03.4-.05h-.01c-.21,0-.4.04-.58.13-.19.06-.35.16-.48.31-.15.14-.25.3-.31.48-.09.18-.14.37-.13.58l.05.4c.07.25.2.47.39.66.29.27.65.44,1.06.44.09,0,.33-.03.42-.06.13-.03.26-.09.38-.16l.3-.23c.05-.05.09-.1.13-.16.06-.08.09-.11.13-.18.04-.08.13-.29.16-.37.01-.07.02-.14.03-.21.02-.07.03-.14.03-.21,0,0,0-.02,0-.02l-.05-.4c-.03-.13-.09-.26-.16-.38-.06-.11-.32-.39-.25-.32h-.02c-.1-.09-.2-.17-.3-.25-.14-.08-.28-.15-.44-.18-.21-.05-.43-.06-.64-.06-.4,0-.79,0-1.19,0-.21,0-.4.04-.58.13-.19.06-.35.16-.48.31l-.23.3c-.11.17-.17.36-.18.56-.04.13-.04.27,0,.4,0,.2.07.39.18.56l.23.3c.19.19.41.31.66.39l.29.12c.2.06.4.07.6.03.2,0,.39-.07.56-.18.17-.09.32-.22.42-.39.13-.14.22-.31.27-.51l.05-.4c0-.27-.07-.52-.2-.76l-.23-.3c-.19-.19-.41-.31-.66-.39h0Z"/>
        <path d="M15.3,21.45c-.44,1.36-.36,2.92.66,4,.52.55,1.23.86,1.98.92s1.49-.29,2.04-.79c.49-.45.8-1.06,1.03-1.67.21-.54.31-1.16.25-1.74-.08-.78-.32-1.5-.86-2.08-.39-.43-.97-.77-1.53-.9-.7-.16-1.43-.1-2.06.25-.68.38-1.08,1.02-1.35,1.73-.46,1.19-.62,2.73.12,3.84.5.75,1.21,1.22,2.11,1.31.83.08,1.57-.38,2.08-.99.43-.51.78-1.09.91-1.75.16-.79.06-1.55-.29-2.28-.61-1.25-2.12-1.91-3.45-1.48-.85.28-1.41.88-1.74,1.7-.21.52-.22,1.12-.22,1.68,0,.83.17,1.6.73,2.24.48.55,1.21.82,1.91.87,1.43.09,2.65-1,3.03-2.32s-.11-2.93-1.05-3.96c-.52-.57-1.31-.94-2.09-.93-.9.01-1.64.48-2.13,1.22-.73,1.11-.93,2.54-.72,3.84.2,1.2,1.05,2.37,2.26,2.71,1.33.37,2.82-.38,3.64-1.41s1.27-2.53.75-3.85c-.26-.65-.66-1.21-1.19-1.67-.25-.22-.5-.44-.8-.59-.53-.27-1.09-.34-1.67-.23-1.28.26-2.3,1.55-2.53,2.8-.12.66-.13,1.3.06,1.95.22.75,1.07,1.3,1.85,1.05s1.28-1.04,1.05-1.85c-.03-.12-.06-.23-.08-.35l.05.4c-.03-.22-.03-.43,0-.65l-.05.4c.03-.24.1-.47.19-.7l-.15.36c.08-.18.18-.34.29-.5l-.23.3c.12-.16.26-.3.41-.42l-.3.23c.1-.08.21-.14.33-.19l-.36.15c.09-.04.19-.06.29-.08l-.4.05c.1-.01.19-.01.29,0l-.4-.05c.05,0,.1.02.15.04l-.36-.15c.13.05.24.12.35.21l-.3-.23c.27.21.53.45.74.72l-.23-.3c.11.15.2.3.28.47l-.15-.36c.08.19.13.39.16.6l-.05-.4c.02.21.02.41,0,.62l.05-.4c-.03.21-.09.4-.17.59l.15-.36c-.09.21-.2.4-.34.58l.23-.3c-.16.2-.33.37-.53.53l.3-.23c-.21.16-.43.29-.66.39l.36-.15c-.16.06-.31.11-.47.13l.4-.05c-.11.01-.22.01-.33,0l.4.05c-.11-.02-.21-.04-.31-.08l.36.15c-.12-.05-.22-.11-.32-.19l.3.23c-.12-.1-.22-.2-.31-.32l.23.3c-.11-.15-.19-.3-.26-.46l.15.36c-.1-.23-.16-.47-.2-.71l.05.4c-.04-.36-.04-.72.01-1.08l-.05.4c.05-.34.14-.66.27-.97l-.15.36c.09-.22.2-.43.34-.63l-.23.3c.06-.08.12-.15.2-.21l-.3.23c.08-.06.16-.1.25-.14l-.36.15c.07-.02.13-.04.2-.05l-.4.05c.1-.01.19-.01.28,0l-.4-.05c.12.02.23.05.35.09l-.36-.15c.11.05.22.11.32.19l-.3-.23c.12.1.22.2.32.32l-.23-.3c.16.21.29.44.4.68l-.15-.36c.11.26.19.53.23.82l-.05-.4c.02.2.02.39,0,.59l.05-.4c-.03.17-.07.33-.13.5l.15-.36c-.07.16-.15.3-.25.43l.23-.3c-.09.11-.19.21-.3.3l.3-.23c-.1.07-.19.13-.3.18l.36-.15c-.12.05-.24.08-.38.1l.4-.05c-.11,0-.21,0-.32,0l.4.05c-.13-.02-.25-.05-.37-.1l.36.15c-.1-.04-.19-.09-.27-.16l.3.23c-.08-.07-.15-.14-.22-.22l.23.3c-.04-.06-.07-.12-.11-.18l.15.36c-.07-.16-.1-.31-.13-.48l.05.4c-.04-.41-.04-.84.01-1.25l-.05.4c.03-.17.07-.33.13-.49l-.15.36c.04-.09.09-.17.14-.25l-.23.3c.07-.09.14-.16.23-.23l-.3.23c.07-.05.14-.09.22-.13l-.36.15c.12-.05.24-.08.37-.1l-.4.05c.13-.01.26-.01.39,0l-.4-.05c.11.02.21.05.32.09l-.36-.15c.1.05.2.1.29.17l-.3-.23c.11.09.21.19.29.3l-.23-.3c.08.12.15.24.21.37l-.15-.36c.06.16.1.31.13.48l-.05-.4c.02.17.02.33,0,.5l.05-.4c-.03.18-.08.34-.14.51l.15-.36c-.09.21-.21.41-.35.59l.23-.3c-.13.16-.26.3-.42.43l.3-.23c-.08.06-.15.11-.24.15l.36-.15c-.05.02-.1.03-.16.04l.4-.05c-.09,0-.16,0-.25,0l.4.05c-.08-.02-.16-.04-.24-.07l.36.15c-.09-.04-.16-.09-.24-.14l.3.23c-.09-.07-.17-.15-.25-.24l.23.3c-.1-.13-.18-.27-.25-.43l.15.36c-.06-.16-.1-.33-.13-.5l.05.4c-.02-.25-.01-.48.02-.73l-.05.4c.06-.41.17-.82.33-1.21l-.15.36c.07-.16.15-.3.25-.44l-.23.3c.06-.07.13-.14.2-.21l-.3.23c.08-.06.17-.11.26-.16l-.36.15c.09-.04.19-.06.29-.08l-.4.05c.14-.02.28-.02.42,0l-.4-.05c.14.02.28.06.41.12l-.36-.15c.13.06.26.14.37.22l-.3-.23c.1.08.18.17.26.26l-.23-.3c.08.11.15.23.21.36l-.15-.36c.07.17.11.33.14.51l-.05-.4c.03.23.03.46,0,.69l.05-.4c-.04.29-.12.56-.23.83l.15-.36c-.1.23-.21.44-.36.63l.23-.3c-.1.13-.22.25-.35.35l.3-.23c-.1.07-.19.13-.3.18l.36-.15c-.11.04-.22.07-.33.09l.4-.05c-.09,0-.18,0-.27,0l.4.05c-.11-.02-.22-.05-.32-.09l.36.15c-.13-.06-.24-.12-.36-.2l.3.23c-.11-.09-.21-.18-.3-.29l.23.3c-.1-.13-.18-.27-.25-.42l.15.36c-.06-.16-.1-.32-.13-.49l.05.4c-.03-.26-.03-.51,0-.77l-.05.4c.04-.26.1-.51.18-.76.24-.75-.28-1.67-1.05-1.85-.82-.19-1.58.25-1.85,1.05h0Z"/>
        <path d="M26.66,31.72l4.9.17c.79.03,1.54-.71,1.5-1.5-.04-.84-.66-1.47-1.5-1.5l-4.9-.17c-.79-.03-1.54.71-1.5,1.5.04.84.66,1.47,1.5,1.5h0Z"/>
        <path d="M29.84,30.81c.29,1.21.24,2.45.25,3.69,0,1.31,0,2.62-.01,3.93-.02,2.62-.08,5.24-.17,7.85l1.5-1.5h-.12c.35.14.71.29,1.06.43l-.09-.09.44,1.06v-.12c-.11-1.92-3.11-1.93-3.01,0,.05,1.01.71,1.65,1.71,1.71.83.05,1.47-.73,1.5-1.5.09-2.72.15-5.44.17-8.17s.27-5.49-.35-8.1c-.44-1.88-3.34-1.08-2.89.8h0Z"/>
        <path d="M26.39,30.61l.37,16.14c.04,1.93,2.93,1.93,3,0,.01-.29.02-.58.03-.88.07-1.93-2.93-1.93-3,0-.01.29-.02.58-.03.88h3l-.37-16.14c-.04-1.93-3.04-1.93-3,0h0Z"/>
        <path d="M27.68,29.49c-.77-.37-1.57-.33-2.18.33s-.6,1.44-.54,2.25c.12,1.7.24,3.39.36,5.09.24,3.45.48,6.9.73,10.35.13,1.92,3.14,1.93,3,0-.19-2.74-.38-5.47-.58-8.21-.09-1.31-.18-2.63-.28-3.94-.05-.66-.09-1.31-.14-1.97-.03-.38-.05-.77-.08-1.15-.01-.16-.02-.33-.03-.49.02-.47-.05-.44-.2.08l-.66.39.12-.04-1.16-.15.13.06c.73.35,1.62.2,2.05-.54.39-.66.19-1.7-.54-2.05h0Z"/>
        <path d="M28.17,48.77c.34-.08.68-.15,1.03-.2l-.4.05c.86-.11,1.72-.12,2.57,0l-.4-.05h.07c.2.07.4.08.6.04.2,0,.39-.07.56-.18.31-.18.61-.54.69-.9.09-.38.07-.81-.15-1.16-.2-.3-.52-.64-.9-.69-.75-.1-1.49-.17-2.24-.14s-1.5.15-2.22.33c-.76.19-1.29,1.09-1.05,1.85s1.03,1.25,1.85,1.05h0Z"/>
        <path d="M30.99,32.78l-.13-.71c-.13-.72-.97-1.18-1.65-1.07-.75.11-1.27.71-1.3,1.47-.18,4.2-.35,8.4-.53,12.61-.03.81.71,1.5,1.5,1.5.84,0,1.47-.69,1.5-1.5.18-4.2.35-8.4.53-12.61l-2.95.4.13.71c.15.8,1.11,1.25,1.85,1.05.84-.23,1.19-1.05,1.05-1.85h0Z"/>
        <path d="M33.41,37.8c.74-2.31,1.87-4.67,3.82-6.21,1.59-1.25,3.95-1.89,5.88-1.07,2.21.94,3.08,3.61,3.61,5.74.33,1.32.52,2.67.56,4.03.02.75,0,1.5-.05,2.24-.04.53.02,1.47-.28,1.91l.54-.54c-.25.12-1.22.05-1.59.08-.64.05-1.28.11-1.93.16l1.5,1.5c.04-2.78-.09-5.69-.71-8.42-.57-2.49-2.3-4.24-4.94-4.27-2.34-.03-4.57,1.23-6.01,3.03-1.64,2.06-2.25,4.66-2.31,7.25l1.5-1.5c-.89-.03-1.78.08-2.64.32-1.86.51-1.07,3.41.8,2.89.62-.17,1.19-.23,1.84-.21.82.03,1.48-.71,1.5-1.5.06-3.09,1.55-7.34,5.31-7.28,1.69.02,1.98,1.52,2.21,2.92.36,2.23.48,4.5.44,6.76-.01.76.7,1.57,1.5,1.5s1.63-.14,2.45-.21,1.77,0,2.48-.4c1.34-.75,1.27-2.99,1.34-4.33.18-3.04-.26-6.23-1.37-9.08-1.02-2.62-2.76-4.97-5.59-5.71-2.61-.69-5.53.02-7.66,1.63-2.61,1.96-4.14,4.89-5.12,7.94-.59,1.84,2.3,2.63,2.89.8h0Z"/>
        <path d="M34.05,47.52c-.09-1.38-.11-2.76-.05-4.15s.2-2.72.39-3.89c.12-.77-.2-1.65-1.05-1.85-.72-.16-1.71.22-1.85,1.05-.47,2.92-.64,5.87-.45,8.83.05.78.65,1.54,1.5,1.5.77-.03,1.55-.66,1.5-1.5h0Z"/>
        <path d="M34.18,44.42c-.52-3.61,1.47-7.64,4.07-10.06,1.2-1.12,2.74-1.67,4.32-1.02,1.45.6,2.58,1.94,3.07,3.41.75,2.25.49,4.66.01,6.93h2.89c-.51-1.92-.98-3.86-1.54-5.76-.26-.9-.59-1.81-1.08-2.61-.21-.33-.45-.64-.66-.97-.09-.15-.18-.3-.28-.44l-.06-.2c-.03.25-.01.24.05-.02l-2.51.66c.79.71,1.01,1.69,1.21,2.71.23,1.17.37,2.36.82,3.48l2.89-.8c-.44-1.05-.87-2.11-1.31-3.16s-.83-2.18-1.36-3.2c-.91-1.74-3.43-2.95-4.97-1.18-.53.61-.6,1.52,0,2.12.54.54,1.59.61,2.12,0,.31-.35-.28.11-.25,0,.02-.09.27.17.3.21.35.46.55,1.14.77,1.67.6,1.45,1.2,2.9,1.8,4.35.31.75.99,1.28,1.85,1.05.71-.2,1.35-1.09,1.05-1.85-1.02-2.51-.61-5.55-2.8-7.52-.86-.77-2.15-.44-2.51.66-.67,2.07,1.29,3.56,1.89,5.37.67,2.04,1.14,4.16,1.69,6.23.37,1.38,2.58,1.48,2.89,0,.55-2.63.86-5.41.13-8.04-.63-2.31-2.15-4.42-4.29-5.55s-4.81-1.11-6.92.28c-1.99,1.31-3.52,3.39-4.6,5.48-1.39,2.67-2.01,5.56-1.58,8.55.12.8,1.13,1.24,1.85,1.05.86-.24,1.16-1.04,1.05-1.85h0Z"/>
        <path d="M44.95,44.02l-.23-.1c-.57-.25-1.14-.29-1.67.12-.48.37-.69.99-.54,1.58.03.13.06.26.09.39.03.18.03.18,0,0,0,.07.01.13.02.2.02.29,0,.58-.03.86-.05.46.25.91.59,1.18.41.31.81.35,1.31.27.09-.01.18-.03.27-.04-.17.02-.17.02,0,0,.18-.02.36-.04.54-.05.34-.02.68-.04,1.02-.04s.68.01,1.02.04c.18.01.36.03.54.05.18.02.18.02,0,0,.09.01.18.03.27.04.49.08.9.04,1.31-.27.34-.26.64-.72.59-1.18-.2-1.71-.23-3.42-.1-5.14l-2.95.4c.02.08.04.16.05.24.08.37,0-.19,0,.03,0,.17.02.33.03.5,0,.38,0,.75-.02,1.13-.02.81.02,1.64.27,2.41.23.71.89,1.18,1.65,1.07s1.31-.72,1.3-1.47c-.02-2.08-.04-4.16-.06-6.24,0-.78-.68-1.54-1.5-1.5s-1.51.66-1.5,1.5c.02,2.08.04,4.16.06,6.24l2.95-.4c-.06-.18-.09-.36-.14-.53-.06-.21.01.25,0,.03,0-.08-.01-.16-.02-.25-.02-.37-.01-.75,0-1.12.02-.82,0-1.63-.18-2.44-.17-.73-.94-1.17-1.65-1.07-.77.1-1.24.72-1.3,1.47-.13,1.71-.1,3.43.1,5.14l1.9-1.45c-1.77-.28-3.49-.28-5.26,0l1.9,1.45c.08-.75,0-1.52-.19-2.25l-2.2,1.69.23.1c.72.31,1.64.24,2.05-.54.34-.65.23-1.72-.54-2.05h0Z"/>
        <path d="M47.38,41.08l.05,6.14,2.26-1.3c-.57-.27-1.15-.42-1.78-.41-.55,0-1.1.12-1.64.21-.05,0-.1.02-.15.02-.17.02-.13.02.1-.01-.01.03-.28.03-.3.03-.1,0-.2.01-.3,0-.07,0-.13,0-.2,0-.13-.01-.13-.01,0,0,.13.02.13.01,0-.01-.07-.02-.14-.03-.21-.05-.1-.03-.21-.05-.31-.08-.33-.07-.69-.13-1.03-.1l1.5,1.5c.03-.68.08-1.36.16-2.04,0-.08,0-.16.03-.24-.03.11-.03.22,0,.04.02-.16.05-.32.07-.48.06-.36.13-.71.2-1.06.16-.77-.22-1.66-1.05-1.85-.75-.17-1.67.23-1.85,1.05-.31,1.5-.51,3.04-.56,4.57-.03.76.71,1.57,1.5,1.5.03,0,.3-.04.32,0-.22-.03-.25-.03-.08,0l.1.02c.21.05.42.1.63.14.58.1,1.11.08,1.7,0,.25-.03.5-.07.75-.11.1-.02.2-.03.3-.05.15-.03-.36.04,0,0,.2-.02.39-.01.58-.01.12,0,.06,0-.16-.03.05,0,.09.02.14.03.11.03.43.17.05,0,.5.23,1.02.29,1.51,0,.45-.27.75-.77.74-1.3l-.05-6.14c0-.78-.69-1.54-1.5-1.5s-1.51.66-1.5,1.5h0Z"/>
        <path d="M26.65,46.45l-.13.27c-.11.24-.2.49-.2.76,0,.33.12.65.32.91.38.49.98.67,1.58.54.36-.08.72-.16,1.08-.24.77-.17,1.29-1.1,1.05-1.85-.26-.81-1.02-1.22-1.85-1.05-.51.11-.92.37-1.3.7-.18.15-.32.44-.39.66-.09.33-.05.67.08.98.1.25.25.44.46.6.24.18.6.36.91.32,1.22-.15,2.45-.19,3.67-.13l-1.5-1.5c0,.06,0,.12,0,.18.02.4.15.78.44,1.06.26.26.69.46,1.06.44.78-.04,1.54-.66,1.5-1.5,0-.06,0-.12,0-.18-.04-.84-.66-1.45-1.5-1.5-1.23-.07-2.45-.02-3.67.13l1.06,2.56.05-.04-.3.23c.11-.08.22-.15.34-.2l-.36.15c.08-.03.17-.05.25-.07l-.8-2.89c-.36.08-.72.16-1.08.24l1.69,2.2.13-.27c.17-.37.26-.75.15-1.16-.1-.35-.36-.73-.69-.9-.35-.18-.77-.28-1.16-.15-.35.11-.73.34-.9.69h0Z"/>
        <path d="M30.02,30.93c-.1,1.11-.22,2.21-.37,3.31l.05-.4c-.06.46-.13.92-.2,1.37-.06.41-.07.78.15,1.16.18.31.54.61.9.69.38.09.81.07,1.16-.15.31-.2.63-.52.69-.9.26-1.69.47-3.38.62-5.08.03-.36-.19-.81-.44-1.06s-.69-.46-1.06-.44-.79.14-1.06.44-.4.64-.44,1.06h0Z"/>
        <path d="M25.01,30.16c.14,3.17.35,6.33.63,9.49.07.78.64,1.54,1.5,1.5.75-.03,1.57-.66,1.5-1.5-.28-3.16-.49-6.32-.63-9.49-.04-.78-.66-1.54-1.5-1.5-.78.04-1.54.66-1.5,1.5h0Z"/>
        <path d="M30.86,39.97c-.08.67-.17,1.34-.25,2.01s-.11,1.34.13,1.97c.27.71.86,1.18,1.65,1.07.74-.1,1.29-.72,1.3-1.47,0-.21,0-.41.01-.62,0-.1.01-.21.02-.31,0-.08,0-.37,0-.03,0-.17.07-.37.11-.53.03-.1.06-.19.09-.29-.09.24,0,.04.06-.08l-2.8-.76c0,1.53,0,3.05,0,4.58,0,.78.69,1.54,1.5,1.5s1.49-.66,1.5-1.5c0-.49.02-.99.05-1.48,0-.12.02-.23.03-.35,0-.04.04-.41.02-.22s.03-.18.04-.22c.02-.14.05-.28.09-.41l-2.95-.4c-.03,1.64,0,3.29.11,4.93l1.5-1.5c-1.85.18-3.7.18-5.55.02-.78-.07-1.53.74-1.5,1.5.04.87.66,1.42,1.5,1.5,1.85.17,3.7.16,5.55-.02.77-.07,1.55-.63,1.5-1.5-.1-1.64-.14-3.29-.11-4.93.01-.75-.58-1.38-1.3-1.47s-1.48.34-1.65,1.07c-.26,1.15-.31,2.32-.32,3.49h3c0-1.53,0-3.05,0-4.58s-2.05-2.05-2.8-.76c-.6,1.03-.69,2.2-.7,3.36l2.95-.4c-.02-.05-.12-.48-.09-.27s0-.18,0-.23c0-.28.05-.55.08-.82.08-.62.16-1.25.24-1.87.1-.78-.76-1.53-1.5-1.5-.9.04-1.39.66-1.5,1.5h0Z"/>
      </g>
      <path class="cls-1" d="M48.74,3.1c1.67,3.96,3.18,7.99,4.55,12.07l2.89-.8c-.79-1.89-1.59-3.79-2.38-5.68-.38-.91-.76-1.81-1.14-2.72l-.62-1.48c-.1-.25-.22-.49-.31-.74l-.07-.17c-.08-.19-.08-.23,0-.13l-.2.76c-.09.19-.2.14.07.02.15-.07.29-.15.44-.22.28-.14.57-.27.87-.39.64-.26,1.3-.47,1.96-.66l-1.9-1.45c.41,4.5.67,9,.75,13.52.03,1.64,2.58,2.1,2.95.4.31-1.43-.05-2.81-1.05-3.89-1.32-1.42-3.43.71-2.12,2.12.25.27.36.62.28.97l2.95.4c-.09-4.51-.34-9.02-.75-13.52-.09-.95-.89-1.73-1.9-1.45-1.43.41-2.91.93-4.19,1.69-.83.49-1.26,1.3-1.1,2.27.12.74.53,1.45.81,2.13,1.26,3.01,2.52,6.01,3.77,9.02.31.75.99,1.28,1.85,1.05.75-.21,1.31-1.07,1.05-1.85-1.37-4.08-2.88-8.1-4.55-12.07-.31-.75-.99-1.28-1.85-1.05-.7.19-1.36,1.09-1.05,1.85h0Z"/>
      <path class="cls-1" d="M50.71,2.19c.04,2.42.61,4.76,1.6,6.96.14.31.57.62.9.69s.66.06.98-.08c.66-.28,1.1-1.05.87-1.77-.5-1.53-1.2-3-2.13-4.31-.45-.64-1.33-1-2.05-.54-.63.41-1.02,1.37-.54,2.05.42.59.79,1.2,1.12,1.85.08.15.15.3.22.45.04.08.07.17.11.25.08.17-.1-.27,0,0,.14.34.26.69.38,1.04l2.74-1.16c-.03-.07-.26-.52-.08-.17-.05-.1-.09-.21-.13-.32-.1-.25-.19-.5-.27-.75-.15-.47-.29-.95-.4-1.43-.05-.24-.1-.48-.15-.73-.02-.13-.04-.26-.06-.39-.06-.39.03.33,0-.05-.06-.53-.1-1.06-.11-1.6-.01-.78-.68-1.54-1.5-1.5s-1.52.66-1.5,1.5h0Z"/>
      <path class="cls-1" d="M57.02,19.58s-.02-.04-.03-.06l.15.36c-.02-.06-.04-.12-.05-.19l.05.4c0-.08-.01-.15,0-.22l-.05.4c.01-.09.03-.17.07-.25l-.15.36c.03-.06.06-.11.1-.17l-.23.3s.04-.05.06-.07l-1.46.39s.08.02.12.04l-.36-.15c.09.04.18.09.26.15l-.3-.23c.08.06.15.14.21.22l-.23-.3c.06.08.11.17.15.26l-.15-.36c.04.1.07.21.09.32l-.05-.4c.01.09.01.18,0,.27l.05-.4c-.01.09-.04.18-.07.26l.15-.36c-.04.08-.08.16-.14.24l.23-.3c-.07.09-.15.17-.24.24l.3-.23c-.08.06-.17.11-.26.15l.36-.15c-.1.04-.21.07-.32.09l.4-.05c-.09,0-.18,0-.27,0l.4.05h-.03c.3.23.6.45.9.68-.02-.03-.04-.06-.05-.09l.15.36s-.03-.08-.03-.12l.05.4c0-.06,0-.12,0-.18l-.05.4c.01-.06.03-.12.05-.17l-.15.36c.03-.06.06-.12.11-.18l-.23.3s.08-.09.13-.13l-.3.23s.1-.07.15-.09l-.36.15s.08-.03.12-.03l-.4.05c.05,0,.1,0,.15,0l-.4-.05h.03c-.35-.34-.7-.69-1.05-1.04,0,.02.01.04.02.06l-.05-.4s0,.04,0,.06l.05-.4s-.01.05-.02.07l.15-.36s-.02.03-.03.05l.23-.3s-.04.04-.06.06l.3-.23s-.07.05-.11.07l.36-.15s-.09.03-.13.04l.4-.05s-.09,0-.14,0l.4.05s-.07-.01-.11-.03l.36.15s-.05-.03-.08-.04l.3.23s-.05-.05-.07-.07l.23.3s-.06-.09-.08-.14l.15.36c-.03-.07-.05-.14-.06-.22l.05.4c-.02-.14,0-.27,0-.41l-.05.4c.01-.09.03-.18.05-.27.08-.39.06-.8-.15-1.16-.18-.31-.54-.61-.9-.69-.38-.09-.81-.07-1.16.15-.32.2-.61.51-.69.9-.11.53-.21,1.15,0,1.68.12.31.17.42.36.66.05.07.11.15.17.21.1.09.24.2.36.27.15.08.32.16.49.2s.36.07.54.06c.36-.03.72-.1,1.02-.3.38-.26.71-.62.81-1.08.03-.14.06-.3.05-.44,0-.09-.03-.33-.06-.42,0-.01,0-.02,0-.03-.07-.25-.21-.51-.4-.69l-.15-.12c-.14-.13-.31-.22-.51-.27-.13-.03-.29-.04-.42-.06-.18-.02-.38.02-.55.05s-.35.12-.51.2-.29.2-.42.31c-.1.08-.17.18-.25.28-.19.25-.35.5-.42.81-.04.18-.07.36-.07.54,0,.03,0,.06,0,.09.02.15.02.32.07.47.04.14.11.29.17.42.01.03.03.05.05.08.21.32.53.6.91.69.16.04.33.05.49.06.26.02.54-.02.79-.1s.51-.18.73-.33c.15-.11.31-.22.44-.35s.25-.29.36-.44c.04-.06.08-.12.11-.18.08-.17.17-.36.22-.54s.08-.41.09-.61-.03-.41-.06-.61c-.01-.08-.03-.16-.06-.24-.07-.19-.14-.38-.24-.55-.34-.6-.92-1.05-1.58-1.24-.5-.15-1.1,0-1.46.39-.11.12-.21.26-.31.39-.03.04-.05.08-.07.12-.1.19-.2.4-.23.62-.03.17-.06.34-.06.51,0,.11.02.22.04.33.04.31.11.5.25.8.09.17.22.32.39.42.14.13.31.22.51.27.2.06.4.07.6.03.2,0,.39-.07.56-.18.32-.21.6-.51.69-.9l.05-.4c0-.27-.07-.52-.2-.76h0Z"/>
      <path class="cls-1" d="M2.55,65.43c2.23-2.67,4.63-5.19,7.17-7.56.58-.54.58-1.59,0-2.12-.62-.57-1.51-.57-2.12,0-2.55,2.37-4.94,4.89-7.17,7.56-.5.6-.63,1.54,0,2.12.56.51,1.58.64,2.12,0h0Z"/>
      <path class="cls-1" d="M3.95,58.42c.44-.14.88-.25,1.33-.34.11-.02.21-.04.32-.06.04,0,.4-.06.19-.03s.15-.02.19-.02c.13-.01.26-.03.39-.04.22-.02.44-.03.66-.03.1,0,.21,0,.31,0,.23,0,.09,0-.05-.03.23.06-.09-.07-.16-.12-.04-.03-.32-.31-.27-.38-.04.06.18.47.02,0,.04.1.02.23.03.33.18,1.85.21,3.71.11,5.57-.04.78.72,1.53,1.5,1.5.85-.04,1.46-.66,1.5-1.5.06-1.07.07-2.15.04-3.22-.02-.54-.05-1.07-.09-1.61-.04-.6-.06-1.24-.21-1.82-.2-.77-.77-1.38-1.54-1.6-.53-.15-1.11-.13-1.65-.1-1.16.07-2.32.27-3.42.61-.75.23-1.3,1.06-1.05,1.85s1.04,1.3,1.85,1.05h0Z"/>
      <path class="cls-1" d="M53.36,62.18c3.38,4.15,7.05,8.06,10.98,11.7l1.06-2.56c-.17,0-.34-.01-.51-.02-.81-.03-1.5.71-1.5,1.5,0,.84.69,1.47,1.5,1.5.17,0,.34.01.51.02,1.28.05,2-1.69,1.06-2.56-3.93-3.64-7.6-7.54-10.98-11.7-.51-.63-1.59-.53-2.12,0-.62.62-.51,1.49,0,2.12h0Z"/>
      <path class="cls-1" d="M54.49,67.82l-.8-3.94-.4-1.97c-.07-.36-.15-.72-.22-1.07-.02-.12-.04-.25-.07-.37-.02-.11-.02-.09,0,.07,0-.07-.01-.13-.01-.2,0-.21.07-.19,0-.04s-.13.17-.24.28l.13-.07c-.11.05-.11.06-.01.02.16-.05.32-.09.48-.13.65-.17,1.03-.23,1.59-.27,1.32-.1,2.32.01,3.52.34.76.21,1.67-.26,1.85-1.05s-.24-1.62-1.05-1.85c-1.47-.4-3.04-.57-4.56-.42s-3.77.39-4.47,2.06c-.32.76-.2,1.56-.05,2.34s.31,1.55.47,2.33l.96,4.75c.16.77,1.11,1.29,1.85,1.05.82-.26,1.21-1.02,1.05-1.85h0Z"/>
    </g>
  </g>
</svg>