<?xml version="1.0" encoding="UTF-8"?>
<svg id="Layer_2" data-name="Layer 2" xmlns="http://www.w3.org/2000/svg" viewBox="0 0 396.23 217.05">
  <g id="Layer_1-2" data-name="Layer 1">
    <path d="M54.53,68.99c41.19,1.72,82.54,3.23,123.68-.25,40.79-3.44,81.37-11.94,118.36-29.93,7.97-3.88,17.88-9.27,20.08-18.7,1.12-4.78-.23-9.72-3.6-13.29-2.94-3.11-7.24-4.88-11.36-5.73-9.08-1.88-18.88-1.13-27.9.72s-18.22,5.41-26.5,9.96c-36.08,19.81-55.6,57.38-69.71,94.44-7.43,19.51-13.72,39.44-21.65,58.76-3.97,9.66-8.41,19.15-13.56,28.24-2.33,4.12-4.71,8.72-7.74,12.32-1.16,1.38-2.23,2.45-3.79,2.66.38-.05-.52-.06-.47-.05.5.05-1.02-.31-.94-.28-.54-.22-1.46-.89-2.04-1.43-3.27-3-5.72-7.01-8.26-10.61-2.85-4.03-5.62-8.12-8.34-12.24-5.46-8.26-10.71-16.64-15.96-25.03-10.34-16.51-20.69-33.07-32.57-48.54-6.06-7.9-12.46-15.55-19.42-22.68-6.45-6.6-13.56-13.61-22.84-15.84-4.35-1.05-9.17-.9-13.06,1.55S.62,79.52.1,84.16c-.48,4.27.82,8.81,3.15,12.38,2.76,4.24,6.81,7.01,11.45,8.88s9.63,2.52,14.56,2.99c4.48.44,8.97.75,13.46,1.06,9.16.63,18.32,1.1,27.49,1.45,19.14.72,38.31.89,57.46.72,40.51-.37,81-2.29,121.43-4.88,38.99-2.5,77.94-5.67,116.87-8.95,8.59-.72,17.17-1.45,25.76-2.18,2.42-.2,4.5-1.92,4.5-4.5,0-2.28-2.06-4.71-4.5-4.5-36.86,3.11-73.71,6.26-110.6,8.94-39.52,2.86-79.08,5.22-118.69,6.38-37.54,1.11-75.17,1.23-112.67-1.02-8.45-.51-17.2-.66-25.54-2.18-4.07-.74-8.6-1.98-11.61-4.88-2.29-2.2-3.66-5.37-3.62-8.25.04-2.51,1.52-4.83,4.1-5.55,1.17-.33,2.7-.32,4.03-.04,1.86.39,3.5,1.01,5.11,1.84,3.91,2.01,7.05,4.71,10.19,7.75,3.37,3.26,6.62,6.64,9.77,10.12,25.52,28.26,43.19,62.38,64.44,93.73,2.65,3.9,5.35,7.77,8.13,11.59s5.78,8.31,10.23,10.59c4.8,2.46,10,1.61,14.07-1.8,3.55-2.98,5.95-7.41,8.32-11.32,10.74-17.73,18.41-37.13,25.45-56.57,13.23-36.54,24.74-76.21,51.98-105.22,12.13-12.92,27.32-23.41,44.41-28.48,8.52-2.53,17.3-3.61,26.18-2.98,3.37.24,6.98.84,9.94,2.74,2.42,1.55,3.4,4.1,2.31,6.92s-4.44,5.78-7.42,7.72c-3.88,2.54-8.2,4.45-12.4,6.4-8.79,4.07-17.82,7.59-27.01,10.64-18.8,6.24-38.22,10.49-57.82,13.29-39.51,5.66-79.68,5.42-119.48,4.12-9.66-.32-19.31-.7-28.97-1.11-2.43-.1-4.5,2.14-4.5,4.5,0,2.52,2.06,4.4,4.5,4.5h0Z"/>
    <path d="M234.93,78.7c.43-.47.88-.9,1.35-1.34.31-.29.3-.27-.03-.01.25-.19.51-.37.78-.55.48-.31.97-.6,1.47-.86.1-.05,1.05-.51.49-.26s.52-.19.52-.19c.54-.19,1.09-.35,1.64-.48.31-.07.62-.13.93-.19.5-.1.32,0-.07,0,.63-.02,1.26-.09,1.89-.08.25,0,.51.03.76.04,1.24.05-.91-.17.31.03l-3.3-4.34c0,.81-.02,1.62-.07,2.43-.02.37-.05.74-.09,1.1,0,.04-.17,1.45-.05.56-.21,1.53-.54,3.06-.95,4.55-.2.71-.41,1.42-.65,2.12-.12.35-.24.7-.37,1.04,0,.02-.52,1.32-.21.57-.62,1.5-1.39,2.94-2.22,4.33-1.15,1.94-.59,4.46,1.16,5.81,1.59,1.23,4.53,1.42,5.91-.35s2.95-3.46,4.66-4.96c.44-.39.89-.75,1.34-1.12-.33.27-.31.23.02,0,.26-.19.52-.38.79-.57.96-.67,1.95-1.3,2.96-1.87.96-.55,1.95-1.03,2.95-1.5.77-.37-.31.11.18-.09.24-.1.48-.19.72-.29.55-.21,1.1-.41,1.65-.59,1.05-.35,2.11-.64,3.19-.89.57-.13,1.14-.25,1.72-.35.32-.06.64-.1.96-.16.72-.12-1.09.13.16-.01l-3.89-6.77c-3.4,4.96-4.32,11.48-2.64,17.23,1.11,3.79,6.16,4.34,8.22,1.07.59-.93,1.21-1.84,1.87-2.71-.54.72.48-.58.58-.7.27-.31.54-.63.81-.93,1.43-1.59,2.99-3.02,4.65-4.37.25-.2.22-.17-.1.07.22-.16.44-.33.66-.49.45-.32.9-.63,1.36-.93s.94-.6,1.43-.87c.25-.14.5-.26.76-.38-.36.15-.4.17-.1.06.2-.07.39-.13.6-.18.53-.11.54-.11.02,0,.56.02.55,0-.03-.05.48.15.44.13-.11-.06.42.27.39.25-.08-.06-.32-.48-.35-.51-.09-.09-.19-.32-.27-.66-.25-1.02.14-.65.14-.73,0-.23-.59,1.81.38,4.19,2.07,5.08,1.85.98,3.9.68,5.45-.7.18-.17.37-.33.57-.49-.37.28-.43.33-.17.15.37-.21.71-.47,1.08-.68.32-.18.65-.32.97-.5-.88.48.07-.02.28-.09.75-.26,1.53-.47,2.31-.63.23-.05,1.59-.25.47-.11.38-.05.75-.09,1.13-.12,3.34-.27,6.7.06,10.02.45l-3.18-7.68c-3.38,2.68-3.37,7.96-1.2,11.37,2.58,4.06,7.37,5.58,11.67,3.21,2.1-1.16,3.81-3.12,5.52-4.76s3.54-3.41,5.31-5.11c3.66-3.52,7.31-7.05,10.97-10.57l-7.68-3.18c-.33,6.36.19,12.72,1.39,18.97l2.07-5.08c-.31.23-.62.42-.96.61.54-.3.22-.18-.17,0-.59.27,1.01-.15-.11.01-.89.13.65.2-.3,0-2.3-.5-4.98.68-5.54,3.14-.52,2.27.68,5,3.14,5.54,2.9.63,6.03.27,8.48-1.52,1.75-1.28,2.48-2.94,2.07-5.08-.14-.71-.27-1.42-.38-2.14-.05-.32-.1-.64-.15-.95-.03-.2-.15-1.08-.07-.48-.18-1.44-.32-2.88-.42-4.32-.19-2.89-.2-5.79-.04-8.68.21-4.02-5-5.77-7.68-3.18-5.78,5.57-11.56,11.14-17.34,16.7-.64.62-1.29,1.24-1.94,1.85-.85.79.63-.3-.36.28-.23.13-1.15.44-.36.21-.92.26,1.1-.11.19-.03-.81.08,1,.23.24,0,1.2.37.53.26.2.04-.7-.47.64.7.13.08-.61-.73.05-.11.05.13,0-.13-.31-.52-.4-.67-.46-.73.23.9.06.12-.05-.21-.08-.55-.18-.75.09.78.12.93.09.44,0-.12,0-.25.01-.37-.06-.41-.26,1.16.02.24.11-.33.04-.16-.22.52.19-.3.16-.28-.08.05-.59.59.24-.17.36-.27,1.39-1.1,1.56-3.43.93-4.92-.75-1.78-2.27-2.55-4.11-2.77-8.04-.95-16.62-1.05-23.03,4.66l7.52,4.38c1.33-4.08-1.56-8.25-5.42-9.5-3.52-1.14-7.2.42-10.11,2.35-5.2,3.43-9.56,7.91-12.89,13.17l8.22,1.07c-.15-.51-.27-1.03-.39-1.55-.1-.43-.07-.43-.02.01-.03-.27-.05-.53-.07-.8-.03-.53-.04-1.07-.02-1.6,0-.27.03-.53.05-.8.05-.87-.1.32.02-.19.25-1.05.5-2.06.85-3.08.21-.63-.31.54.02-.03.13-.23.24-.48.36-.71.29-.53.61-1.04.95-1.53,1.81-2.65-.55-7.15-3.89-6.77-10.76,1.22-20.95,6.42-27.66,15.04l7.07,5.45c3.8-6.42,5.82-13.79,5.83-21.24,0-1.8-1.39-4.03-3.3-4.34-6.9-1.12-14.04.94-18.81,6.2-1.58,1.74-1.85,4.66,0,6.36,1.72,1.58,4.68,1.86,6.36,0h0Z"/>
  </g>
</svg>