<?xml version="1.0" encoding="UTF-8"?>
<svg id="Layer_2" data-name="Layer 2" xmlns="http://www.w3.org/2000/svg" viewBox="0 0 181.67 50.91">
  <defs>
    <style>
      .cls-1 {
        fill: #edebc0;
      }

      .cls-2 {
        fill: #6d0f0f;
      }
    </style>
  </defs>
  <g id="Layer_1-2" data-name="Layer 1">
    <g>
      <rect class="cls-1" width="181.67" height="50.91" rx="5" ry="5"/>
      <path d="M35.87,18.25l-2.4,20.74c-.09.81.76,1.49,1.5,1.5.89,0,1.41-.7,1.5-1.5l2.4-20.74c.09-.81-.76-1.49-1.5-1.5-.89,0-1.41.7-1.5,1.5h0Z"/>
      <path d="M26.8,22.07c2.13-3.19,4.92-5.92,8.18-7.95,2.81-1.75,7.72-4.56,10.95-2.4,3.04,2.02.77,7.16-.78,9.48-1.9,2.85-4.82,4.89-8.14,5.7l1.16,2.74c1.4-.84,2.77.68,3.64,1.63,1.25,1.36,2.47,2.75,3.71,4.13,2.45,2.72,4.89,5.45,7.34,8.17,1.29,1.44,3.41-.69,2.12-2.12-2.99-3.33-5.98-6.66-8.97-9.98-2.3-2.56-5.46-6.73-9.35-4.41-1.47.88-.5,3.15,1.16,2.74,6.63-1.62,12.03-7.63,12.52-14.51.27-3.79-2.21-6.75-5.98-7.21s-7.9,1.57-11.05,3.56c-3.63,2.3-6.7,5.35-9.09,8.93-1.07,1.61,1.52,3.11,2.59,1.51h0Z"/>
      <path d="M54.16,26.76c3.78,1.02,8.43,1.55,11.03-2.08,2.16-3.02.15-7.44-3.4-8.19-1.93-.41-3.9.44-5.21,1.86-1.38,1.5-2.02,3.45-2.37,5.43-.39,2.17-.79,4.55-.09,6.71.55,1.69,1.68,3.12,3.18,4.07,3.64,2.33,8.7.81,10.57-3.06.35-.73.2-1.62-.54-2.05-.66-.38-1.7-.19-2.05.54-1,2.07-3.36,3.28-5.59,2.44-2.59-.98-3.12-3.56-2.85-6.04.24-2.29.67-5.93,3.2-6.87,1.73-.64,3.67,1.38,2.92,3.08-.49,1.12-1.78,1.74-2.93,1.93-1.69.28-3.44-.22-5.06-.66-1.87-.5-2.66,2.39-.8,2.89h0Z"/>
      <path d="M86.74,20.17c-.54-2.84-2.33-5.8-5.39-6.35s-6.01,1.36-5.99,4.58,2.61,5.42,4.6,7.65c.78.88,1.7,2.06,1.54,3.32-.12.94-.88,1.67-1.72,2.03-2.56,1.1-4.72-1.76-4.3-4.15.14-.8-.22-1.62-1.05-1.85-.73-.2-1.7.25-1.85,1.05-.51,2.88.65,6.07,3.32,7.5s5.91.5,7.63-1.87c1.96-2.69.56-5.84-1.38-8.06-.96-1.1-2.14-2.04-2.93-3.27-.58-.91-1.38-2.43-.54-3.43.67-.8,1.98-.75,2.84-.31,1.43.74,2.02,2.48,2.3,3.95.15.8,1.11,1.25,1.85,1.05.83-.23,1.2-1.05,1.05-1.85h0Z"/>
      <path d="M90.24,18.63c-.16,2.56-.38,5.12-.45,7.68-.07,2.32.29,4.84,2.04,6.53,1.59,1.54,4.12,2.2,6.05.86,1.68-1.16,2.34-3.17,2.73-5.08.61-2.96,1.19-5.93,1.78-8.9.16-.79-.23-1.62-1.05-1.85-.74-.2-1.69.25-1.85,1.05-.57,2.84-1.13,5.69-1.7,8.53-.28,1.37-.68,4.03-2.35,3.98-2.08-.07-2.64-2.71-2.66-4.39-.03-2.8.29-5.63.46-8.42.05-.81-.72-1.5-1.5-1.5-.85,0-1.45.69-1.5,1.5h0Z"/>
      <path d="M107.46,19.84c.62,3.84.49,7.77-.33,11.57l2.89.8c.36-2.26.92-4.48,1.7-6.63.38-1.06.82-2.1,1.32-3.11.38-.78.8-1.96,1.54-2.49.25-.18.29-.23.47-.13.22.13.37.43.47.65.41.86.52,1.91.67,2.84.38,2.4.47,4.85.36,7.28-.08,1.66,2.66,2.08,2.95.4.37-2.16.95-4.29,1.84-6.3.26-.58,1.94-4.6,2.92-3.56.25.27.3,1.01.37,1.34.13.58.25,1.17.36,1.75.22,1.16.41,2.33.54,3.5.28,2.43.39,4.88.35,7.33-.03,1.93,2.97,1.93,3,0,.05-3.13-.16-6.24-.62-9.33-.22-1.53-.5-3.07-.87-4.58-.31-1.25-.87-2.42-2.12-2.94-2.85-1.16-4.85,1.56-5.97,3.76-1.31,2.59-2.23,5.35-2.71,8.21l2.95.4c.14-3.12-.09-6.25-.69-9.31-.44-2.23-1.84-5.01-4.59-4.43s-3.76,3.78-4.68,5.95c-1.17,2.76-2,5.63-2.48,8.59-.13.8.21,1.61,1.05,1.85.75.21,1.67-.25,1.85-1.05.94-4.36,1.04-8.77.33-13.16-.13-.8-1.13-1.25-1.85-1.05-.85.23-1.18,1.04-1.05,1.85h0Z"/>
      <path d="M133.47,24.3c3.18,3.34,9.35.56,11.19-2.97.99-1.91.8-4.27-.86-5.75-1.47-1.31-3.66-1.74-5.55-1.22-4.55,1.26-6.39,7.23-6.56,11.39-.19,4.56,2.77,9.74,7.88,9.48,2.51-.12,4.89-1.46,6.51-3.34,1.84-2.14,2.87-4.75,3.86-7.36.29-.76-.32-1.65-1.05-1.85-.84-.23-1.56.29-1.85,1.05-1.16,3.04-2.52,6.66-5.74,8.06-1.26.55-2.71.65-3.93-.05s-2.08-2.01-2.45-3.38c-.51-1.89-.22-3.89.29-5.75.39-1.42.93-2.91,1.92-4.04.82-.94,1.88-1.58,3.16-1.42.88.11,1.87.62,1.98,1.58.17,1.54-1.62,2.79-2.79,3.39s-2.9,1.09-3.91.03c-1.33-1.4-3.45.72-2.12,2.12h0Z"/>
      <path class="cls-2" d="M26.56,43.81c15.24-2.19,30.74-1.65,46.09-1.43,15.48.22,30.95.5,46.43.83,8.82.19,17.64.4,26.46.62,1.93.05,1.93-2.95,0-3-15.81-.41-31.61-.75-47.42-1.04s-31.1-.71-46.64-.59c-8.6.07-17.19.49-25.71,1.72-1.9.27-1.09,3.17.8,2.89h0Z"/>
      <path class="cls-2" d="M161.38,9.77c-.26,4-.52,8-.78,11.99-.05.81.73,1.5,1.5,1.5.86,0,1.45-.69,1.5-1.5.26-4,.52-8,.78-11.99.05-.81-.73-1.5-1.5-1.5-.86,0-1.45.69-1.5,1.5h0Z"/>
      <path class="cls-2" d="M162.81,31.2v-.43c0-.21-.04-.4-.13-.58-.06-.19-.16-.35-.31-.48-.14-.15-.3-.25-.48-.31-.18-.09-.37-.14-.58-.13l-.4.05c-.25.07-.47.2-.66.39l-.23.3c-.14.23-.2.49-.2.76v.43c0,.21.04.4.13.58.06.19.16.35.31.48.14.15.3.25.48.31.18.09.37.14.58.13l.4-.05c.25-.07.47-.2.66-.39l.23-.3c.14-.23.2-.49.2-.76h0Z"/>
      <path class="cls-2" d="M11.68,26.6c1.22,3.87,2.14,7.83,2.73,11.84.12.8,1.13,1.24,1.85,1.05.86-.24,1.17-1.04,1.05-1.85-.59-4.01-1.51-7.97-2.73-11.84-.58-1.83-3.48-1.05-2.89.8h0Z"/>
      <path class="cls-2" d="M12.19,16.79c1.93,0,1.93-3,0-3s-1.93,3,0,3h0Z"/>
    </g>
  </g>
</svg>