<?xml version="1.0" encoding="UTF-8"?>
<svg id="Layer_2" data-name="Layer 2" xmlns="http://www.w3.org/2000/svg" xmlns:xlink="http://www.w3.org/1999/xlink" viewBox="0 0 222.65 36.23">
  <defs>
    <style>
      .cls-1 {
        fill: url(#linear-gradient-8);
      }

      .cls-2 {
        fill: url(#linear-gradient-7);
      }

      .cls-3 {
        fill: url(#linear-gradient-5);
      }

      .cls-4 {
        fill: url(#linear-gradient-6);
      }

      .cls-5 {
        fill: url(#linear-gradient-9);
      }

      .cls-6 {
        fill: url(#linear-gradient-4);
      }

      .cls-7 {
        fill: url(#linear-gradient-3);
      }

      .cls-8 {
        fill: url(#linear-gradient-2);
      }

      .cls-9 {
        fill: url(#linear-gradient);
      }

      .cls-10 {
        fill: url(#linear-gradient-10);
      }

      .cls-11 {
        fill: url(#linear-gradient-11);
      }

      .cls-12 {
        fill: url(#linear-gradient-12);
      }

      .cls-13 {
        fill: url(#linear-gradient-13);
      }

      .cls-14 {
        fill: url(#linear-gradient-19);
      }

      .cls-15 {
        fill: url(#linear-gradient-14);
      }

      .cls-16 {
        fill: url(#linear-gradient-15);
      }

      .cls-17 {
        fill: url(#linear-gradient-16);
      }

      .cls-18 {
        fill: url(#linear-gradient-17);
      }

      .cls-19 {
        fill: url(#linear-gradient-18);
      }
    </style>
    <linearGradient id="linear-gradient" x1="1.92" y1=".38" x2="14.97" y2="23" gradientUnits="userSpaceOnUse">
      <stop offset=".06" stop-color="#a3282a"/>
      <stop offset=".27" stop-color="#6d1704"/>
      <stop offset="1" stop-color="#3d1704"/>
    </linearGradient>
    <linearGradient id="linear-gradient-2" x1="22.49" y1="1.39" x2="34.39" y2="21.99" xlink:href="#linear-gradient"/>
    <linearGradient id="linear-gradient-3" x1="39.93" y1="3.84" x2="52.13" y2="24.97" xlink:href="#linear-gradient"/>
    <linearGradient id="linear-gradient-4" x1="61.02" y1="1.44" x2="74.1" y2="24.1" xlink:href="#linear-gradient"/>
    <linearGradient id="linear-gradient-5" x1="82.34" y1="-.09" x2="93.64" y2="19.48" xlink:href="#linear-gradient"/>
    <linearGradient id="linear-gradient-6" x1="100.36" y1=".38" x2="113.41" y2="23" xlink:href="#linear-gradient"/>
    <linearGradient id="linear-gradient-7" x1="121.34" y1="2.16" x2="127.27" y2="12.45" xlink:href="#linear-gradient"/>
    <linearGradient id="linear-gradient-8" x1="134.44" y1="3.32" x2="144.47" y2="20.68" xlink:href="#linear-gradient"/>
    <linearGradient id="linear-gradient-9" x1="152.15" y1=".06" x2="163.45" y2="19.64" xlink:href="#linear-gradient"/>
    <linearGradient id="linear-gradient-10" x1="190.39" y1=".52" x2="203.45" y2="23.13" xlink:href="#linear-gradient"/>
    <linearGradient id="linear-gradient-11" x1="210.58" y1="1.52" x2="222.47" y2="22.12" xlink:href="#linear-gradient"/>
    <linearGradient id="linear-gradient-12" x1="89.65" y1="26.69" x2="94.86" y2="35.71" xlink:href="#linear-gradient"/>
    <linearGradient id="linear-gradient-13" x1="97.44" y1="27.35" x2="102.06" y2="35.36" xlink:href="#linear-gradient"/>
    <linearGradient id="linear-gradient-14" x1="103.99" y1="27.47" x2="108.56" y2="35.39" xlink:href="#linear-gradient"/>
    <linearGradient id="linear-gradient-15" x1="112.33" y1="25.98" x2="117.48" y2="34.91" xlink:href="#linear-gradient"/>
    <linearGradient id="linear-gradient-16" x1="119.71" y1="26.68" x2="125.68" y2="37.01" xlink:href="#linear-gradient"/>
    <linearGradient id="linear-gradient-17" x1="130.38" y1="27.14" x2="135.24" y2="35.56" xlink:href="#linear-gradient"/>
    <linearGradient id="linear-gradient-18" x1="176.52" y1="23.69" x2="176.52" y2="0" gradientUnits="userSpaceOnUse">
      <stop offset=".06" stop-color="#c47e2f"/>
      <stop offset=".06" stop-color="#c47c2e"/>
      <stop offset=".32" stop-color="#cf5c23"/>
      <stop offset=".57" stop-color="#d8451c"/>
      <stop offset=".8" stop-color="#dd3717"/>
      <stop offset="1" stop-color="#df3316"/>
    </linearGradient>
    <linearGradient id="linear-gradient-19" x1="176.54" y1="21.96" x2="176.54" y2="11.38" gradientUnits="userSpaceOnUse">
      <stop offset=".06" stop-color="#c48a54"/>
      <stop offset=".06" stop-color="#c48a53"/>
      <stop offset=".21" stop-color="#cb9445"/>
      <stop offset=".33" stop-color="#ce9841"/>
      <stop offset=".95" stop-color="#ce7d41"/>
    </linearGradient>
  </defs>
  <g id="Layer_6" data-name="Layer 6">
    <g>
      <g>
        <g>
          <path class="cls-9" d="M5.25,21.89H0V1.49h5.25v7.35h6.39V1.49h5.25v20.4h-5.25v-8.22h-6.39v8.22Z"/>
          <path class="cls-8" d="M22.32,21.89V1.49h12.24v4.68h-6.99v2.97h6.39v4.53h-6.39v3.54h6.99v4.68h-12.24Z"/>
          <path class="cls-7" d="M37.74,21.89c1.04-3.36,2.09-6.76,3.14-10.2,1.05-3.44,2.1-6.84,3.13-10.2h7.17c1.04,3.36,2.09,6.76,3.14,10.2,1.05,3.44,2.1,6.84,3.14,10.2h-5.28c-.2-.64-.39-1.28-.57-1.94-.18-.65-.37-1.29-.57-1.93h-6.87c-.2.64-.39,1.29-.57,1.93-.18.65-.37,1.3-.57,1.94h-5.28ZM45.48,13.55h4.23c-.34-1.18-.69-2.37-1.05-3.57-.36-1.2-.71-2.39-1.05-3.57-.34,1.18-.7,2.37-1.07,3.57-.37,1.2-.73,2.39-1.07,3.57Z"/>
          <path class="cls-6" d="M60.93,21.89V1.49h7.23c1.52,0,2.85.28,3.99.85,1.14.57,2.02,1.37,2.66,2.4.63,1.03.95,2.24.95,3.62,0,1.18-.24,2.23-.72,3.15-.48.92-1.13,1.67-1.95,2.25.8,1.34,1.61,2.7,2.42,4.07s1.62,2.73,2.42,4.07h-5.88c-.62-1.12-1.25-2.26-1.88-3.42-.63-1.16-1.26-2.3-1.9-3.42h-2.07v6.84h-5.25ZM68.17,6.23h-1.98v4.44h2.28c.6,0,1.09-.21,1.47-.64.38-.43.57-.96.57-1.58s-.2-1.17-.61-1.59c-.41-.42-.99-.63-1.73-.63Z"/>
          <path class="cls-3" d="M84.22,21.89V6.26h-4.62V1.49h14.46v4.77h-4.59v15.63h-5.25Z"/>
          <path class="cls-4" d="M103.69,21.89h-5.25V1.49h5.25v7.35h6.39V1.49h5.25v20.4h-5.25v-8.22h-6.39v8.22Z"/>
        </g>
        <g>
          <path class="cls-2" d="M128.73,9.55c0,.76-.19,1.43-.57,1.98-.38.56-.91.99-1.58,1.29-.67.3-1.45.45-2.34.45-.83,0-1.57-.13-2.21-.4-.64-.27-1.15-.66-1.52-1.16-.37-.51-.56-1.11-.56-1.8,0-.57.13-1.09.38-1.57s.65-.89,1.17-1.23c-.42-.32-.73-.69-.93-1.12-.2-.43-.3-.9-.3-1.41,0-.75.2-1.38.61-1.88.4-.5.95-.88,1.63-1.13.68-.25,1.44-.38,2.27-.4.83-.02,1.68.08,2.53.3v2.79c-.48-.14-.96-.23-1.44-.29-.48-.06-.93-.06-1.33-.02-.4.05-.72.14-.97.29-.25.15-.37.36-.37.63,0,.35.24.6.72.73.48.13,1.14.2,1.98.2v-1.25h2.82v1.25h1.06v2.53h-1.06v1.23ZM122.93,9.48c0,.33.12.61.37.83s.59.33,1.03.33c.48,0,.86-.12,1.15-.35.28-.23.43-.56.43-.98v-.99c-.93,0-1.66.07-2.19.21s-.79.46-.79.96Z"/>
          <path class="cls-1" d="M146.78,15.89c0,1.52-.4,2.76-1.19,3.71-.79.95-1.85,1.64-3.18,2.06-1.33.42-2.82.6-4.46.55-1.64-.05-3.31-.3-5.01-.76v-5.16c1.56.56,2.98.91,4.26,1.05,1.28.14,2.3.09,3.06-.16.76-.25,1.14-.68,1.14-1.28,0-.42-.21-.76-.63-1.04-.42-.27-.97-.51-1.64-.73-.67-.22-1.38-.47-2.12-.76-.74-.29-1.44-.66-2.12-1.11-.67-.45-1.21-1.04-1.64-1.77-.42-.73-.63-1.64-.63-2.75,0-1.36.36-2.51,1.08-3.45.72-.94,1.7-1.65,2.93-2.13,1.23-.48,2.63-.72,4.2-.72s3.2.24,4.88.72v5.16c-1.4-.6-2.69-.97-3.86-1.1-1.17-.13-2.11-.07-2.81.18-.7.25-1.05.66-1.05,1.22,0,.4.21.73.63.99s.96.49,1.64.7c.67.21,1.37.46,2.12.75.74.29,1.44.67,2.12,1.14.67.47,1.22,1.08,1.64,1.83.42.75.63,1.71.63,2.87Z"/>
          <path class="cls-5" d="M154.03,22.04V6.41h-4.62V1.64h14.46v4.77h-4.59v15.63h-5.25Z"/>
          <path class="cls-10" d="M188.47,22.02V1.62h5.28c1.06,1.9,2.14,3.82,3.23,5.76,1.09,1.94,2.16,3.86,3.23,5.76V1.62h5.16v20.4h-5.28c-1.06-1.9-2.14-3.82-3.23-5.76-1.09-1.94-2.17-3.86-3.23-5.76v11.52h-5.16Z"/>
          <path class="cls-11" d="M210.4,22.02V1.62h12.24v4.68h-6.99v2.97h6.39v4.53h-6.39v3.54h6.99v4.68h-12.24Z"/>
        </g>
        <g>
          <path class="cls-12" d="M89.63,36.01v-9.31h3.39c.63,0,1.18.11,1.66.34.47.22.84.53,1.11.93.26.4.4.86.4,1.4,0,.38-.07.73-.22,1.04-.15.31-.37.57-.66.78.38.23.68.52.88.88.2.36.3.76.3,1.2,0,.55-.14,1.03-.42,1.44-.28.41-.67.73-1.16.96-.5.23-1.08.34-1.75.34h-3.53ZM93.79,29.6c0-.24-.07-.43-.22-.58s-.34-.23-.57-.23h-1v1.59h1c.24,0,.43-.07.57-.21.15-.14.22-.33.22-.57ZM94.09,33.05c0-.26-.08-.46-.25-.61-.17-.15-.4-.23-.69-.23h-1.15v1.7h1.15c.29,0,.52-.08.69-.23.17-.16.25-.36.25-.63Z"/>
          <path class="cls-13" d="M98.55,36.01v-9.31h2.4v9.31h-2.4Z"/>
          <path class="cls-15" d="M109.61,33.2c0,.69-.18,1.26-.54,1.69-.36.43-.84.75-1.45.94s-1.28.28-2.03.25c-.75-.02-1.51-.14-2.29-.35v-2.35c.71.26,1.36.42,1.94.48.58.06,1.05.04,1.4-.08s.52-.31.52-.58c0-.19-.1-.35-.29-.47-.19-.12-.44-.23-.75-.34-.31-.1-.63-.22-.96-.35-.34-.13-.66-.3-.97-.51-.31-.21-.55-.47-.75-.81-.19-.33-.29-.75-.29-1.25,0-.62.16-1.14.49-1.57.33-.43.77-.75,1.33-.97.56-.22,1.2-.33,1.92-.33s1.46.11,2.22.33v2.35c-.64-.27-1.23-.44-1.76-.5-.53-.06-.96-.03-1.28.08-.32.11-.48.3-.48.55,0,.18.1.33.29.45.19.12.44.23.75.32.31.1.63.21.97.34.34.13.66.31.96.52.31.21.55.49.75.84s.29.78.29,1.31Z"/>
          <path class="cls-16" d="M113.18,36.01v-7.13h-2.11v-2.18h6.6v2.18h-2.09v7.13h-2.4Z"/>
          <path class="cls-17" d="M119.67,36.01v-9.31h3.3c.69,0,1.3.13,1.82.39.52.26.92.63,1.21,1.09s.43,1.02.43,1.65c0,.54-.11,1.02-.33,1.44-.22.42-.52.76-.89,1.03.36.61.73,1.23,1.1,1.85.37.63.74,1.24,1.1,1.85h-2.68c-.28-.51-.57-1.03-.86-1.56-.29-.53-.58-1.05-.87-1.56h-.94v3.12h-2.4ZM122.97,28.86h-.9v2.03h1.04c.27,0,.5-.1.67-.29.17-.2.26-.44.26-.72s-.09-.53-.28-.73c-.19-.19-.45-.29-.79-.29Z"/>
          <path class="cls-18" d="M132.81,36.23c-.67,0-1.28-.12-1.85-.36-.57-.24-1.05-.58-1.46-1.02-.41-.44-.73-.96-.96-1.55-.23-.6-.34-1.25-.34-1.95s.11-1.35.34-1.94c.23-.59.55-1.11.96-1.54s.9-.77,1.46-1.01c.57-.24,1.18-.36,1.85-.36s1.28.12,1.84.36c.56.24,1.05.58,1.46,1.01.42.43.74.95.96,1.54.23.59.34,1.24.34,1.94s-.11,1.35-.34,1.95c-.23.6-.55,1.12-.96,1.55-.42.44-.9.78-1.46,1.02-.56.24-1.17.36-1.84.36ZM132.81,34.01c.45,0,.83-.11,1.15-.34.32-.22.57-.54.75-.94.18-.4.27-.87.27-1.4s-.09-.99-.27-1.38c-.18-.39-.43-.7-.75-.92-.32-.22-.7-.34-1.15-.34s-.82.11-1.14.33c-.32.22-.57.53-.75.92-.18.4-.27.86-.27,1.39s.09.99.27,1.4c.18.4.43.71.75.94.32.22.7.34,1.14.34Z"/>
        </g>
      </g>
      <path class="cls-19" d="M174.9,0s5.26,3.26,4.35,7.55c-.91,4.29,3.16,5.15,4.27,1.49,4.88,5.09,1.85,14.18-6.61,14.64-8.46.46-13.17-9.19-6.63-15.66,6.53-6.48,4.63-8,4.63-8Z"/>
      <path class="cls-14" d="M175.58,11.38s-1.03,7.78,5.15,4.29c1.77,3.03-.69,6.4-4.52,6.29s-7.43-5.6-.63-10.58Z"/>
    </g>
  </g>
</svg>