<?xml version="1.0" encoding="UTF-8"?>
<svg id="Layer_2" data-name="Layer 2" xmlns="http://www.w3.org/2000/svg" viewBox="0 0 324.81 57.64">
  <defs>
    <style>
      .cls-1 {
        fill: none;
        stroke: #283d63;
        stroke-miterlimit: 10;
        stroke-width: 2.03px;
      }

      .cls-2 {
        opacity: 0;
      }

      .cls-2, .cls-3 {
        fill: #283d63;
      }
    </style>
  </defs>
  <g id="Layer_1-2" data-name="Layer 1">
    <g id="r1-c1">
      <g>
        <path class="cls-3" d="M28,1.02c5.43,0,10.63,2.17,15.36,4.89.54.31.54.93.23,1.4l-4.19,5.97c-.39.54-.85.62-1.4.23-2.33-1.71-5.82-3.26-9.93-3.26-24.43,0-24.43,38.16,0,38.16,5.04,0,8.15-1.55,10.01-3.1.47-.39,1.01-.31,1.32.16l4.27,5.9c.31.47.23,1.09-.23,1.4-4.19,3.26-8.69,4.89-15.44,4.89C9.31,57.64,0,43.45,0,29.33S9.31,1.02,28,1.02Z"/>
        <path class="cls-3" d="M55.23,3.19c0-.62.39-1.01,1.01-1.01h33.12c.62,0,1.01.39,1.01,1.01v6.67c0,.62-.39,1.01-1.01,1.01h-22.65c-1.32,0-2.17.85-2.17,2.17v9.77c0,1.32.85,2.17,2.17,2.17h17.07c.62,0,1.01.39,1.01,1.01v6.67c0,.62-.39,1.01-1.01,1.01h-17.07c-1.32,0-2.17.85-2.17,2.17v9.77c0,1.32.85,2.17,2.17,2.17h22.65c.62,0,1.01.39,1.01,1.01v6.67c0,.62-.39,1.01-1.01,1.01h-33.12c-.62,0-1.01-.39-1.01-1.01V3.19Z"/>
        <path class="cls-3" d="M98.52,2.18h7.68c.54,0,1.16.39,1.4.93l20.4,44.29c.23.54.23,1.24,0,1.78l-3.34,7.37c-.23.47-.62.7-1.09.7s-.93-.23-1.16-.7L97.9,3.11c-.23-.54,0-.93.62-.93ZM126.83,30.42l12.64-27.3c.23-.54.85-.93,1.47-.93h7.6c.62,0,.85.39.62.93l-17.45,37.93c-.23.54-.62.54-.85,0l-4.03-8.77c-.23-.54-.23-1.32,0-1.86Z"/>
        <path class="cls-2" d="M158.25,3.19c0-.62.39-1.01,1.01-1.01h7.29c.62,0,1.01.39,1.01,1.01v6.67c0,.62-.39,1.01-1.01,1.01h-7.29c-.62,0-1.01-.39-1.01-1.01V3.19ZM159.26,18.39h7.29c.62,0,1.01.39,1.01,1.01v36.07c0,.62-.39,1.01-1.01,1.01h-7.29c-.62,0-1.01-.39-1.01-1.01V19.4c0-.62.39-1.01,1.01-1.01Z"/>
        <path class="cls-3" d="M206.12,1.02c5.43,0,10.63,2.17,15.36,4.89.54.31.54.93.23,1.4l-4.19,5.97c-.39.54-.85.62-1.4.23-2.33-1.71-5.82-3.26-9.93-3.26-24.43,0-24.43,38.16,0,38.16,5.04,0,8.15-1.55,10.01-3.1.47-.39,1.01-.31,1.32.16l4.27,5.9c.31.47.23,1.09-.23,1.4-4.19,3.26-8.69,4.89-15.44,4.89-18.69,0-28-14.2-28-28.31S187.42,1.02,206.12,1.02Z"/>
        <path class="cls-3" d="M234.35,2.18h7.29c.62,0,1.01.39,1.01,1.01v19.63c0,1.32.85,2.17,2.17,2.17h21.56c1.32,0,2.17-.85,2.17-2.17V3.19c0-.62.47-1.01,1.01-1.01h7.29c.62,0,1.01.39,1.01,1.01v52.28c0,.62-.39,1.01-1.01,1.01h-7.29c-.54,0-1.01-.39-1.01-1.01v-19.62c0-1.32-.85-2.17-2.17-2.17h-32.04c-.62,0-1.01-.39-1.01-1.01V3.19c0-.62.39-1.01,1.01-1.01ZM234.35,41.9h7.29c.62,0,1.01.39,1.01,1.01v12.57c0,.62-.39,1.01-1.01,1.01h-7.29c-.62,0-1.01-.39-1.01-1.01v-12.57c0-.62.39-1.01,1.01-1.01Z"/>
        <path class="cls-3" d="M289.67,3.19c0-.62.39-1.01,1.01-1.01h33.12c.62,0,1.01.39,1.01,1.01v6.67c0,.62-.39,1.01-1.01,1.01h-22.65c-1.32,0-2.17.85-2.17,2.17v9.77c0,1.32.85,2.17,2.17,2.17h17.07c.62,0,1.01.39,1.01,1.01v6.67c0,.62-.39,1.01-1.01,1.01h-17.07c-1.32,0-2.17.85-2.17,2.17v9.77c0,1.32.85,2.17,2.17,2.17h22.65c.62,0,1.01.39,1.01,1.01v6.67c0,.62-.39,1.01-1.01,1.01h-33.12c-.62,0-1.01-.39-1.01-1.01V3.19Z"/>
      </g>
      <g>
        <path class="cls-1" d="M166.8,9.22c-3.06-11.15-6.58-11-9.47.83-2.4,12.3-1.6,25.21,3.02,38.86,1.3,1.03,2.46,1.04,3.48,0,4.2-14.47,5.01-27.63,2.97-39.68Z"/>
        <path class="cls-1" d="M162.16,19.96c.32,0,1.5,1.69,1.5,3.77s-1.17,3.77-1.5,3.77-1.93-1.69-1.93-3.77,1.6-3.77,1.93-3.77Z"/>
        <path class="cls-1" d="M156.93,13.42c1.04-.88,2.8-.89,4.81-.59,2.98.27,4.24-1.43,5.06-3.62"/>
        <path class="cls-1" d="M156.01,20.55c-2.39,2.36-5.73,5.86-6.9,10.27l4.79,4.59,2.51-4.18"/>
        <path class="cls-1" d="M159.23,45.33l-3.86,9.33c4.59,1.92,8.94,1.8,13.1,0l-3.76-8.93"/>
        <path class="cls-1" d="M165.78,41.19l2.68,4.78c1.74-1.3,2.6-3.31,2.64-5.96-.38-2.74-1.71-4.62-4.12-5.52"/>
        <path class="cls-1" d="M167.87,26.32l3.91,1.86c.11-3.5-1.77-5.81-4.06-7.89"/>
        <path class="cls-1" d="M157.51,37.87c-1.07,1.31-1.88,2.77-2.15,4.52,1.13,1.58,2.62,1.97,4.23,1.98"/>
        <circle class="cls-1" cx="161.39" cy="7.8" r=".52"/>
      </g>
    </g>
  </g>
</svg>