<?xml version="1.0" encoding="UTF-8"?>
<svg id="Layer_2" data-name="Layer 2" xmlns="http://www.w3.org/2000/svg" xmlns:xlink="http://www.w3.org/1999/xlink" viewBox="0 0 216.63 30.66">
  <defs>
    <style>
      .cls-1 {
        fill: none;
      }

      .cls-2 {
        fill: url(#linear-gradient-8);
      }

      .cls-3 {
        fill: url(#linear-gradient-7);
      }

      .cls-4 {
        fill: url(#linear-gradient-5);
      }

      .cls-5 {
        fill: url(#linear-gradient-6);
      }

      .cls-6 {
        fill: url(#linear-gradient-9);
      }

      .cls-7 {
        fill: url(#linear-gradient-4);
      }

      .cls-8 {
        fill: url(#linear-gradient-3);
      }

      .cls-9 {
        fill: url(#linear-gradient-2);
      }

      .cls-10 {
        fill: url(#linear-gradient);
      }

      .cls-11 {
        fill: url(#linear-gradient-43);
      }

      .cls-12 {
        fill: url(#linear-gradient-40);
      }

      .cls-13 {
        fill: url(#linear-gradient-41);
      }

      .cls-14 {
        fill: url(#linear-gradient-42);
      }

      .cls-15 {
        fill: url(#linear-gradient-49);
      }

      .cls-16 {
        fill: url(#linear-gradient-48);
      }

      .cls-17 {
        fill: url(#linear-gradient-45);
      }

      .cls-18 {
        fill: url(#linear-gradient-47);
      }

      .cls-19 {
        fill: url(#linear-gradient-44);
      }

      .cls-20 {
        fill: url(#linear-gradient-46);
      }

      .cls-21 {
        fill: url(#linear-gradient-10);
      }

      .cls-22 {
        fill: url(#linear-gradient-11);
      }

      .cls-23 {
        fill: url(#linear-gradient-12);
      }

      .cls-24 {
        fill: url(#linear-gradient-13);
      }

      .cls-25 {
        fill: url(#linear-gradient-19);
      }

      .cls-26 {
        fill: url(#linear-gradient-14);
      }

      .cls-27 {
        fill: url(#linear-gradient-21);
      }

      .cls-28 {
        fill: url(#linear-gradient-20);
      }

      .cls-29 {
        fill: url(#linear-gradient-22);
      }

      .cls-30 {
        fill: url(#linear-gradient-23);
      }

      .cls-31 {
        fill: url(#linear-gradient-28);
      }

      .cls-32 {
        fill: url(#linear-gradient-25);
      }

      .cls-33 {
        fill: url(#linear-gradient-32);
      }

      .cls-34 {
        fill: url(#linear-gradient-31);
      }

      .cls-35 {
        fill: url(#linear-gradient-33);
      }

      .cls-36 {
        fill: url(#linear-gradient-30);
      }

      .cls-37 {
        fill: url(#linear-gradient-15);
      }

      .cls-38 {
        fill: url(#linear-gradient-16);
      }

      .cls-39 {
        fill: url(#linear-gradient-17);
      }

      .cls-40 {
        fill: url(#linear-gradient-18);
      }

      .cls-41 {
        fill: url(#linear-gradient-35);
      }

      .cls-42 {
        fill: url(#linear-gradient-34);
      }

      .cls-43 {
        fill: url(#linear-gradient-36);
      }

      .cls-44 {
        fill: url(#linear-gradient-38);
      }

      .cls-45 {
        fill: url(#linear-gradient-27);
      }

      .cls-46 {
        fill: url(#linear-gradient-24);
      }

      .cls-47 {
        fill: url(#linear-gradient-26);
      }

      .cls-48 {
        fill: url(#linear-gradient-29);
      }

      .cls-49 {
        fill: url(#linear-gradient-37);
      }

      .cls-50 {
        fill: url(#linear-gradient-39);
      }

      .cls-51 {
        fill: url(#linear-gradient-57);
      }

      .cls-52 {
        fill: url(#linear-gradient-58);
      }

      .cls-53 {
        fill: url(#linear-gradient-59);
      }

      .cls-54 {
        fill: url(#linear-gradient-53);
      }

      .cls-55 {
        fill: url(#linear-gradient-54);
      }

      .cls-56 {
        fill: url(#linear-gradient-55);
      }

      .cls-57 {
        fill: url(#linear-gradient-56);
      }

      .cls-58 {
        fill: url(#linear-gradient-50);
      }

      .cls-59 {
        fill: url(#linear-gradient-51);
      }

      .cls-60 {
        fill: url(#linear-gradient-52);
      }

      .cls-61 {
        fill: url(#linear-gradient-60);
      }

      .cls-62 {
        fill: #332513;
      }

      .cls-63 {
        fill: #246024;
      }

      .cls-64 {
        clip-path: url(#clippath);
      }
    </style>
    <clipPath id="clippath">
      <path class="cls-1" d="M36.89-.98v33.64h22.89V-.98h-22.89ZM43.91,13.45l-1.76-4.51.09-.02c.81.31,2.13.47,2.34.48.12,0,.24,0,.36,0,.78,0,1.54-.11,2.33-.27l1.43,3.82c-.16.04-.31.08-.47.12-.49.13-.99.27-1.47.33-.55.07-1.11.1-1.67.1-.39,0-.78-.02-1.18-.06ZM55.01,25.18l-.32-.3c0,.08.02.13.03.14-.38-.62-3.52-1.42-4.73-1.5-.1,0-.19,0-.29,0-.48,0-1,.06-1.56.12-.08,0-.16.01-.25.02l-1.56-4.01c.33-.01.69-.06,1.02-.11.24-.04.45-.07.62-.08.42-.04.83-.05,1.25-.05.63,0,1.29.05,1.94.13l.73,1.95.61-1.75c1.66.33,2.98.81,3.98,1.45l-1.47,3.98Z"/>
    </clipPath>
    <linearGradient id="linear-gradient" x1="-241.57" y1="271.92" x2="-243.67" y2="273.13" gradientTransform="translate(297.27 -248.18)" gradientUnits="userSpaceOnUse">
      <stop offset=".03" stop-color="#2c957d"/>
      <stop offset=".49" stop-color="#2c657d"/>
      <stop offset="1" stop-color="#2f6049"/>
    </linearGradient>
    <linearGradient id="linear-gradient-2" x1="-241.57" y1="271.92" x2="-243.67" y2="273.13" gradientTransform="translate(296.03 -248.71)" xlink:href="#linear-gradient"/>
    <linearGradient id="linear-gradient-3" x1="-241.57" x2="-243.67" y2="273.13" gradientTransform="translate(296.16 -250.06)" xlink:href="#linear-gradient"/>
    <linearGradient id="linear-gradient-4" x2="-243.67" y2="273.13" gradientTransform="translate(297.48 -250.36)" xlink:href="#linear-gradient"/>
    <linearGradient id="linear-gradient-5" gradientTransform="translate(298.17 -249.19)" xlink:href="#linear-gradient"/>
    <linearGradient id="linear-gradient-6" x1="-231.42" y1="286.76" x2="-232.62" y2="287.45" gradientTransform="translate(286.59 -263.25)" xlink:href="#linear-gradient"/>
    <linearGradient id="linear-gradient-7" x1="-231.42" y1="286.76" x2="-232.62" y2="287.45" gradientTransform="translate(285.87 -263.53)" xlink:href="#linear-gradient"/>
    <linearGradient id="linear-gradient-8" x1="-231.42" y1="286.76" x2="-232.62" y2="287.45" gradientTransform="translate(285.91 -264.3)" xlink:href="#linear-gradient"/>
    <linearGradient id="linear-gradient-9" x1="-231.42" y1="286.76" x2="-232.62" y2="287.45" gradientTransform="translate(286.66 -264.5)" xlink:href="#linear-gradient"/>
    <linearGradient id="linear-gradient-10" x1="-231.42" y1="286.76" x2="-232.62" y2="287.45" gradientTransform="translate(287.08 -263.85)" xlink:href="#linear-gradient"/>
    <linearGradient id="linear-gradient-11" x1="-228.06" y1="292.5" x2="-228.66" y2="292.84" gradientTransform="translate(282.85 -269.11)" xlink:href="#linear-gradient"/>
    <linearGradient id="linear-gradient-12" x1="-228.06" y1="292.5" x2="-228.66" y2="292.84" gradientTransform="translate(282.5 -269.24)" xlink:href="#linear-gradient"/>
    <linearGradient id="linear-gradient-13" x1="-228.06" y1="292.5" x2="-228.66" y2="292.84" gradientTransform="translate(282.51 -269.63)" xlink:href="#linear-gradient"/>
    <linearGradient id="linear-gradient-14" x1="-228.06" y1="292.5" x2="-228.66" y2="292.84" gradientTransform="translate(282.88 -269.73)" xlink:href="#linear-gradient"/>
    <linearGradient id="linear-gradient-15" x1="-228.06" y1="292.5" x2="-228.66" y2="292.84" gradientTransform="translate(283.09 -269.41)" xlink:href="#linear-gradient"/>
    <linearGradient id="linear-gradient-16" x1="-152.34" y1="676.65" x2="-153.11" y2="679.52" gradientTransform="translate(197.2 -673.96)" gradientUnits="userSpaceOnUse">
      <stop offset=".29" stop-color="#007594"/>
      <stop offset="1" stop-color="#00092a"/>
    </linearGradient>
    <linearGradient id="linear-gradient-17" gradientTransform="translate(195.48 -673.27)" xlink:href="#linear-gradient-16"/>
    <linearGradient id="linear-gradient-18" x1="-152.34" y1="676.65" x2="-153.11" y2="679.52" gradientTransform="translate(194.3 -674.7)" xlink:href="#linear-gradient-16"/>
    <linearGradient id="linear-gradient-19" x1="-152.34" x2="-153.11" gradientTransform="translate(195.29 -676.26)" xlink:href="#linear-gradient-16"/>
    <linearGradient id="linear-gradient-20" gradientTransform="translate(197.08 -675.81)" xlink:href="#linear-gradient-16"/>
    <linearGradient id="linear-gradient-21" x1="-156.6" y1="694.93" x2="-157.04" y2="696.56" gradientTransform="translate(200.75 -692.01)" xlink:href="#linear-gradient-16"/>
    <linearGradient id="linear-gradient-22" x1="-156.6" y1="694.93" x2="-157.04" y2="696.56" gradientTransform="translate(199.78 -691.58)" xlink:href="#linear-gradient-16"/>
    <linearGradient id="linear-gradient-23" x1="-156.6" y1="694.93" x2="-157.04" y2="696.56" gradientTransform="translate(199.08 -692.37)" xlink:href="#linear-gradient-16"/>
    <linearGradient id="linear-gradient-24" x1="-156.6" y1="694.93" x2="-157.04" y2="696.56" gradientTransform="translate(199.61 -693.28)" xlink:href="#linear-gradient-16"/>
    <linearGradient id="linear-gradient-25" x1="-156.6" y1="694.93" x2="-157.04" y2="696.56" gradientTransform="translate(200.64 -693.06)" xlink:href="#linear-gradient-16"/>
    <linearGradient id="linear-gradient-26" x1="-158.49" y1="701.95" x2="-158.71" y2="702.76" gradientTransform="translate(202.18 -698.83)" xlink:href="#linear-gradient-16"/>
    <linearGradient id="linear-gradient-27" x1="-158.49" y1="701.95" x2="-158.71" y2="702.76" gradientTransform="translate(201.7 -698.61)" xlink:href="#linear-gradient-16"/>
    <linearGradient id="linear-gradient-28" x1="-158.49" y1="701.95" x2="-158.71" y2="702.76" gradientTransform="translate(201.35 -699)" xlink:href="#linear-gradient-16"/>
    <linearGradient id="linear-gradient-29" x1="-158.49" y1="701.95" x2="-158.71" y2="702.76" gradientTransform="translate(201.6 -699.45)" xlink:href="#linear-gradient-16"/>
    <linearGradient id="linear-gradient-30" x1="-158.49" y1="701.95" x2="-158.71" y2="702.76" gradientTransform="translate(202.12 -699.35)" xlink:href="#linear-gradient-16"/>
    <linearGradient id="linear-gradient-31" x1="-161.13" y1="702.22" x2="-161.78" y2="704.64" gradientTransform="translate(217.47 -675.58)" xlink:href="#linear-gradient-16"/>
    <linearGradient id="linear-gradient-32" x1="-161.13" y1="702.22" x2="-161.78" y2="704.64" gradientTransform="translate(216.02 -675)" xlink:href="#linear-gradient-16"/>
    <linearGradient id="linear-gradient-33" x1="-161.13" y1="702.22" x2="-161.78" y2="704.64" gradientTransform="translate(215.02 -676.21)" xlink:href="#linear-gradient-16"/>
    <linearGradient id="linear-gradient-34" x1="-161.13" y1="702.22" x2="-161.78" y2="704.64" gradientTransform="translate(215.86 -677.53)" xlink:href="#linear-gradient-16"/>
    <linearGradient id="linear-gradient-35" x1="-161.13" y1="702.22" x2="-161.78" y2="704.64" gradientTransform="translate(217.37 -677.14)" xlink:href="#linear-gradient-16"/>
    <linearGradient id="linear-gradient-36" x1="-166.19" y1="720" x2="-166.56" y2="721.38" gradientTransform="translate(221.93 -693.17)" xlink:href="#linear-gradient-16"/>
    <linearGradient id="linear-gradient-37" x1="-166.19" y1="720" x2="-166.56" y2="721.38" gradientTransform="translate(221.11 -692.81)" xlink:href="#linear-gradient-16"/>
    <linearGradient id="linear-gradient-38" x1="-166.19" y1="720" x2="-166.56" y2="721.38" gradientTransform="translate(220.52 -693.48)" xlink:href="#linear-gradient-16"/>
    <linearGradient id="linear-gradient-39" x1="-166.19" y1="720" x2="-166.56" y2="721.38" gradientTransform="translate(220.97 -694.25)" xlink:href="#linear-gradient-16"/>
    <linearGradient id="linear-gradient-40" x1="-166.19" y1="720" x2="-166.56" y2="721.38" gradientTransform="translate(221.84 -694.06)" xlink:href="#linear-gradient-16"/>
    <linearGradient id="linear-gradient-41" x1="-168.34" y1="726.77" x2="-168.52" y2="727.46" gradientTransform="translate(223.68 -699.78)" xlink:href="#linear-gradient-16"/>
    <linearGradient id="linear-gradient-42" x1="-168.34" y1="726.77" x2="-168.52" y2="727.46" gradientTransform="translate(223.28 -699.6)" xlink:href="#linear-gradient-16"/>
    <linearGradient id="linear-gradient-43" x1="-168.34" y1="726.77" x2="-168.52" y2="727.46" gradientTransform="translate(222.98 -699.92)" xlink:href="#linear-gradient-16"/>
    <linearGradient id="linear-gradient-44" x1="-168.34" y1="726.77" x2="-168.52" y2="727.46" gradientTransform="translate(223.19 -700.31)" xlink:href="#linear-gradient-16"/>
    <linearGradient id="linear-gradient-45" x1="-168.34" y1="726.77" x2="-168.52" y2="727.46" gradientTransform="translate(223.63 -700.22)" xlink:href="#linear-gradient-16"/>
    <linearGradient id="linear-gradient-46" x1="-238.7" y1="272.35" x2="-239.13" y2="273.95" gradientTransform="translate(296.39 -247.14)" xlink:href="#linear-gradient-16"/>
    <linearGradient id="linear-gradient-47" x1="-238.7" y1="272.35" x2="-239.13" y2="273.95" gradientTransform="translate(295.44 -247.55)" xlink:href="#linear-gradient-16"/>
    <linearGradient id="linear-gradient-48" x1="-238.7" y1="272.35" x2="-239.13" y2="273.95" gradientTransform="translate(295.54 -248.58)" xlink:href="#linear-gradient-16"/>
    <linearGradient id="linear-gradient-49" x1="-238.7" y1="272.35" x2="-239.13" y2="273.95" gradientTransform="translate(296.54 -248.81)" xlink:href="#linear-gradient-16"/>
    <linearGradient id="linear-gradient-50" x1="-238.7" y1="272.35" x2="-239.13" y2="273.95" gradientTransform="translate(297.07 -247.92)" xlink:href="#linear-gradient-16"/>
    <linearGradient id="linear-gradient-51" x1="-228.13" y1="287.34" x2="-228.38" y2="288.25" gradientTransform="translate(285.66 -262.16)" xlink:href="#linear-gradient-16"/>
    <linearGradient id="linear-gradient-52" x1="-228.13" y1="287.34" x2="-228.38" y2="288.25" gradientTransform="translate(285.11 -262.37)" xlink:href="#linear-gradient-16"/>
    <linearGradient id="linear-gradient-53" x1="-228.13" y1="287.34" x2="-228.38" y2="288.25" gradientTransform="translate(285.14 -262.96)" xlink:href="#linear-gradient-16"/>
    <linearGradient id="linear-gradient-54" x1="-228.13" y1="287.34" x2="-228.38" y2="288.25" gradientTransform="translate(285.71 -263.11)" xlink:href="#linear-gradient-16"/>
    <linearGradient id="linear-gradient-55" x1="-228.13" y1="287.34" x2="-228.38" y2="288.25" gradientTransform="translate(286.03 -262.62)" xlink:href="#linear-gradient-16"/>
    <linearGradient id="linear-gradient-56" x1="-224.49" y1="293.12" x2="-224.61" y2="293.57" gradientTransform="translate(281.9 -267.94)" xlink:href="#linear-gradient-16"/>
    <linearGradient id="linear-gradient-57" x1="-224.49" y1="293.12" x2="-224.61" y2="293.57" gradientTransform="translate(281.63 -268.04)" xlink:href="#linear-gradient-16"/>
    <linearGradient id="linear-gradient-58" x1="-224.49" y1="293.12" x2="-224.61" y2="293.57" gradientTransform="translate(281.64 -268.33)" xlink:href="#linear-gradient-16"/>
    <linearGradient id="linear-gradient-59" x1="-224.49" y1="293.12" x2="-224.61" y2="293.57" gradientTransform="translate(281.92 -268.41)" xlink:href="#linear-gradient-16"/>
    <linearGradient id="linear-gradient-60" x1="-224.49" y1="293.12" x2="-224.61" y2="293.57" gradientTransform="translate(282.08 -268.17)" xlink:href="#linear-gradient-16"/>
  </defs>
  <g id="Layer_12" data-name="Layer 12">
    <g id="r1-c1">
      <g>
        <g>
          <path class="cls-63" d="M48.47,30.59c2.4-.88,5.13-1.53,7.36-2.8,1.57-.89,2.55-2.62,1.55-4.33-1.05-1.79-3.62-2.49-5.52-2.82-1.25-.22-2.53-.29-3.8-.19-.87.07-3.01.7-3.21-.62-.36-2.34,4.11-2.71,5.54-3.38,1.73-.8,3.13-2.5,2.69-4.51-.49-2.22-2.69-2.49-4.58-2.06-1.33.3-2.59.57-3.96.51-.45-.02-4.7-.54-3.21-1.79.45-.38,1.47-.21,2.04-.29.6-.09,1.15-.24,1.67-.57.89-.57,1.48-1.56,1.64-2.59.34-2.25-1.53-4.05-3.7-4.13-1.36-.05-1.35,2.06,0,2.11,1.03.04,1.88.93,1.55,1.98-.42,1.3-1.76,1.1-2.84,1.25-1.67.24-3.19,1.49-2.68,3.34s2.65,2.47,4.38,2.7c1.09.14,2.17.15,3.26.02s2.46-.78,3.55-.64c1.27.17.93,1.57.21,2.22-.8.74-2.02.95-3.03,1.24-1.7.49-3.52,1.2-4.28,2.93-.64,1.45-.36,3.3,1.1,4.14,1.7.97,4.01.11,5.86.22.94.06,7.16,1.18,5.29,3.04-.81.81-2.3,1.1-3.34,1.48l-4.09,1.5c-1.26.46-.72,2.5.56,2.03h0Z"/>
          <g>
            <path class="cls-62" d="M14.83,9.43v-2.68h-6.89v7.77h6.21v-2.08h3.21v7.93h-3.21v-2.12h-6.21v7.93h3.09v3.21H0v-3.21h3.09V6.19H0v-3.21h18.83v6.45h-4.01Z"/>
            <path class="cls-62" d="M23.52,29.39v-3.21h3.09V6.19h-3.09v-3.21h11.02v3.21h-3.09v19.99h3.09v3.21h-11.02Z"/>
            <path class="cls-62" d="M62.03,6.19l-8.82,23.84h-2.85l-9.3-23.84h-2.04v-3.21h9.42v3.21h-2.28l5.73,15.31,5.33-15.31h-2.4v-3.21h9.26v3.21h-2.04Z"/>
            <path class="cls-62" d="M68.41,29.39v-3.21h3.09V6.19h-3.09v-3.21h18.87v6.45h-4.01v-2.68h-6.93v7.37h6.25v-2.12h3.21v7.93h-3.21v-2.08h-6.25v7.81h7.81v-2.72h4.01v6.45h-19.75Z"/>
            <path class="cls-62" d="M122.5,5.57l-8.82,23.84h-2.84l-9.3-23.84h-2.04v-3.21h9.42v3.21h-2.28l5.73,15.31,5.33-15.31h-2.4v-3.21h9.26v3.21h-2.04Z"/>
            <path class="cls-62" d="M128.27,28.83v-3.21h3.09V5.63h-3.09v-3.21h11.02v3.21h-3.09v20h3.09v3.21h-11.02Z"/>
            <path class="cls-62" d="M170.04,5.55v23.24h-4.93l-13.58-18.83v15.63h3.09v3.21h-10.86v-3.21h3.09V5.59h-3.09v-3.21h7.93l13.7,18.95V5.55h-3.09v-3.21h10.82v3.21h-3.09Z"/>
            <path class="cls-62" d="M176.28,28.77v-3.21h3.09V5.57h-3.09v-3.21h18.87v6.45h-4.01v-2.68h-6.93v7.37h6.25v-2.12h3.21v7.93h-3.21v-2.08h-6.25v7.81h7.81v-2.72h4.01v6.45h-19.75Z"/>
            <path class="cls-62" d="M207.62,29.33c-3.01,0-5.17-.44-7.93-1.68v-5.49h4.01v2.36c1.24.48,2.32.64,3.73.64,2.2,0,4.05-1.4,4.05-3.37,0-2.12-2.85-3.17-4.49-4.13l-.68-.4c-3.17-1.84-6.49-3.73-6.49-7.65,0-4.29,3.37-7.69,8.7-7.69,3.49,0,5.05.4,7.81,1.52v5.49h-4.01v-2.36c-1.24-.44-2.28-.52-3.65-.52-2.28,0-3.53,1.6-3.53,3.29,0,2.24,2.88,3.37,4.69,4.41l.72.4c3.01,1.72,6.09,3.57,6.09,7.29,0,5.25-4.69,7.89-9.02,7.89Z"/>
          </g>
          <g class="cls-64">
            <path class="cls-63" d="M48.47,30.59c2.4-.88,5.13-1.53,7.36-2.8,1.57-.89,2.55-2.62,1.55-4.33-1.05-1.79-3.62-2.49-5.52-2.82-1.25-.22-2.53-.29-3.8-.19-.87.07-3.01.7-3.21-.62-.36-2.34,4.11-2.71,5.54-3.38,1.73-.8,3.13-2.5,2.69-4.51-.49-2.22-2.69-2.49-4.58-2.06-1.33.3-2.59.57-3.96.51-.45-.02-4.7-.54-3.21-1.79.45-.38,1.47-.21,2.04-.29.6-.09,1.15-.24,1.67-.57.89-.57,1.48-1.56,1.64-2.59.34-2.25-1.53-4.05-3.7-4.13-1.36-.05-1.35,2.06,0,2.11,1.03.04,1.88.93,1.55,1.98-.42,1.3-1.76,1.1-2.84,1.25-1.67.24-3.19,1.49-2.68,3.34s2.65,2.47,4.38,2.7c1.09.14,2.17.15,3.26.02s2.46-.78,3.55-.64c1.27.17.93,1.57.21,2.22-.8.74-2.02.95-3.03,1.24-1.7.49-3.52,1.2-4.28,2.93-.64,1.45-.36,3.3,1.1,4.14,1.7.97,4.01.11,5.86.22.94.06,7.16,1.18,5.29,3.04-.81.81-2.3,1.1-3.34,1.48l-4.09,1.5c-1.26.46-.72,2.5.56,2.03h0Z"/>
          </g>
        </g>
        <g>
          <g>
            <g>
              <path class="cls-10" d="M55.43,23.46h.11v.11c0,.92-.75,1.67-1.67,1.67h-.11v-.11c0-.92.75-1.67,1.67-1.67Z" transform="translate(104.45 -8.82) rotate(122.32)"/>
              <path class="cls-9" d="M54.19,22.92h.11v.11c0,.92-.75,1.67-1.67,1.67h-.11v-.11c0-.92.75-1.67,1.67-1.67Z" transform="translate(99.27 60.09) rotate(-165.68)"/>
              <path class="cls-8" d="M54.32,21.57h.11v.11c0,.92-.75,1.67-1.67,1.67h-.11v-.11c0-.92.75-1.67,1.67-1.67Z" transform="translate(34.55 77.33) rotate(-93.68)"/>
              <path class="cls-7" d="M55.64,21.28h.11v.11c0,.92-.75,1.67-1.67,1.67h-.11v-.11c0-.92.75-1.67,1.67-1.67Z" transform="translate(-4.31 21.83) rotate(-21.68)"/>
              <path class="cls-4" d="M56.33,22.44h.11v.11c0,.92-.75,1.67-1.67,1.67h-.11v-.11c0-.92.75-1.67,1.67-1.67Z" transform="translate(38.04 -34.32) rotate(50.32)"/>
            </g>
            <g>
              <path class="cls-5" d="M55.01,23.35h.06v.06c0,.52-.43.95-.95.95h-.06v-.06c0-.52.43-.95.95-.95Z" transform="translate(102.68 -11.24) rotate(120.28)"/>
              <path class="cls-3" d="M54.29,23.07h.06v.06c0,.52-.43.95-.95.95h-.06v-.06c0-.52.43-.95.95-.95Z" transform="translate(101.45 58.06) rotate(-167.72)"/>
              <path class="cls-2" d="M54.34,22.3h.06v.06c0,.52-.43.95-.95.95h-.06v-.06c0-.52.43-.95.95-.95Z" transform="translate(36.58 78.7) rotate(-95.72)"/>
              <path class="cls-6" d="M55.08,22.1h.06v.06c0,.52-.43.95-.95.95h-.06v-.06c0-.52.43-.95.95-.95Z" transform="translate(-4.48 23.89) rotate(-23.72)"/>
              <path class="cls-21" d="M55.5,22.75h.06v.06c0,.52-.43.95-.95.95h-.06v-.06c0-.52.43-.95.95-.95Z" transform="translate(35.77 -33.31) rotate(48.28)"/>
            </g>
            <g>
              <path class="cls-22" d="M54.71,23.31h.03v.03c0,.26-.21.47-.47.47h-.03v-.03c0-.26.21-.47.47-.47Z" transform="translate(101.85 -12.24) rotate(119.53)"/>
              <path class="cls-23" d="M54.36,23.18h.03v.03c0,.26-.21.47-.47.47h-.03v-.03c0-.26.21-.47.47-.47Z" transform="translate(102.5 57.2) rotate(-168.47)"/>
              <path class="cls-24" d="M54.37,22.79h.03v.03c0,.26-.21.47-.47.47h-.03v-.03c0-.26.21-.47.47-.47Z" transform="translate(37.36 79.45) rotate(-96.47)"/>
              <path class="cls-26" d="M54.74,22.69h.03v.03c0,.26-.21.47-.47.47h-.03v-.03c0-.26.21-.47.47-.47Z" transform="translate(-4.61 24.65) rotate(-24.47)"/>
              <path class="cls-37" d="M54.95,23.01h.03v.03c0,.26-.21.47-.47.47h-.03v-.03c0-.26.21-.47.47-.47Z" transform="translate(34.93 -32.81) rotate(47.53)"/>
            </g>
          </g>
          <g>
            <g>
              <path class="cls-38" d="M45.55,2.91h.15v.15c0,1.26-1.02,2.28-2.28,2.28h-.15v-.15c0-1.26,1.02-2.28,2.28-2.28Z" transform="translate(38.75 -40.17) rotate(77.32)"/>
              <path class="cls-39" d="M43.83,3.6h.15v.15c0,1.26-1.02,2.28-2.28,2.28h-.15v-.15c0-1.26,1.02-2.28,2.28-2.28Z" transform="translate(81.99 -12.86) rotate(149.32)"/>
              <path class="cls-40" d="M42.65,2.17h.15v.15c0,1.26-1.02,2.28-2.28,2.28h-.15v-.15c0-1.26,1.02-2.28,2.28-2.28Z" transform="translate(70.56 33.39) rotate(-138.68)"/>
              <path class="cls-25" d="M43.64.61h.15v.15c0,1.26-1.02,2.28-2.28,2.28h-.15v-.15c0-1.26,1.02-2.28,2.28-2.28Z" transform="translate(24.04 40.19) rotate(-66.68)"/>
              <path class="cls-28" d="M45.43,1.07h.15v.15c0,1.26-1.02,2.28-2.28,2.28h-.15v-.15c0-1.26,1.02-2.28,2.28-2.28Z" transform="translate(.4 -4.11) rotate(5.32)"/>
            </g>
            <g>
              <path class="cls-27" d="M44.53,3.05h.08v.08c0,.72-.58,1.3-1.3,1.3h-.08v-.08c0-.72.58-1.3,1.3-1.3Z" transform="translate(36.38 -39.69) rotate(75.28)"/>
              <path class="cls-29" d="M43.57,3.47h.08v.08c0,.72-.58,1.3-1.3,1.3h-.08v-.08c0-.72.58-1.3,1.3-1.3Z" transform="translate(81.35 -15.56) rotate(147.28)"/>
              <path class="cls-30" d="M42.87,2.68h.08v.08c0,.72-.58,1.3-1.3,1.3h-.08v-.08c0-.72.58-1.3,1.3-1.3Z" transform="translate(72.83 32.74) rotate(-140.72)"/>
              <path class="cls-46" d="M43.4,1.77h.08v.08c0,.72-.58,1.3-1.3,1.3h-.08v-.08c0-.72.58-1.3,1.3-1.3Z" transform="translate(24.97 41.44) rotate(-68.72)"/>
              <path class="cls-32" d="M44.43,2h.08v.08c0,.72-.58,1.3-1.3,1.3h-.08v-.08c0-.72.58-1.3,1.3-1.3Z" transform="translate(.23 -2.5) rotate(3.28)"/>
            </g>
            <g>
              <path class="cls-47" d="M43.87,3.18h.04v.04c0,.36-.29.64-.64.64h-.04v-.04c0-.36.29-.64.64-.64Z" transform="translate(35.34 -39.41) rotate(74.52)"/>
              <path class="cls-45" d="M43.39,3.4h.04v.04c0,.36-.29.64-.64.64h-.04v-.04c0-.36.29-.64.64-.64Z" transform="translate(81.1 -16.91) rotate(146.52)"/>
              <path class="cls-31" d="M43.04,3.01h.04v.04c0,.36-.29.64-.64.64h-.04v-.04c0-.36.29-.64.64-.64Z" transform="translate(74.09 32.6) rotate(-141.48)"/>
              <path class="cls-48" d="M43.3,2.56h.04v.04c0,.36-.29.64-.64.64h-.04v-.04c0-.36.29-.64.64-.64Z" transform="translate(25.21 42.15) rotate(-69.48)"/>
              <path class="cls-36" d="M43.81,2.66h.04v.04c0,.36-.29.64-.64.64h-.04v-.04c0-.36.29-.64.64-.64Z" transform="translate(.17 -1.91) rotate(2.52)"/>
            </g>
          </g>
          <g>
            <g>
              <path class="cls-34" d="M56.92,26.82h.12v.12c0,1.06-.86,1.93-1.93,1.93h-.12v-.12c0-1.06.86-1.93,1.93-1.93Z" transform="translate(70.89 -32.92) rotate(77.32)"/>
              <path class="cls-33" d="M55.47,27.4h.12v.12c0,1.06-.86,1.93-1.93,1.93h-.12v-.12c0-1.06.86-1.93,1.93-1.93Z" transform="translate(116 25.03) rotate(149.32)"/>
              <path class="cls-35" d="M54.47,26.2h.12v.12c0,1.06-.86,1.93-1.93,1.93h-.12v-.12c0-1.06.86-1.93,1.93-1.93Z" transform="translate(75.82 83.04) rotate(-138.68)"/>
              <path class="cls-42" d="M55.3,24.88h.12v.12c0,1.06-.86,1.93-1.93,1.93h-.12v-.12c0-1.06.86-1.93,1.93-1.93Z" transform="translate(9.08 65.6) rotate(-66.68)"/>
              <path class="cls-41" d="M56.82,25.26h.12v.12c0,1.06-.86,1.93-1.93,1.93h-.12v-.12c0-1.06.86-1.93,1.93-1.93Z" transform="translate(2.68 -5.08) rotate(5.32)"/>
            </g>
            <g>
              <path class="cls-43" d="M56.06,26.93h.07v.07c0,.61-.49,1.1-1.1,1.1h-.07v-.07c0-.61.49-1.1,1.1-1.1Z" transform="translate(68.04 -33.2) rotate(75.28)"/>
              <path class="cls-49" d="M55.25,27.29h.07v.07c0,.61-.49,1.1-1.1,1.1h-.07v-.07c0-.61.49-1.1,1.1-1.1Z" transform="translate(115.85 21.74) rotate(147.28)"/>
              <path class="cls-44" d="M54.65,26.63h.07v.07c0,.61-.49,1.1-1.1,1.1h-.07v-.07c0-.61.49-1.1,1.1-1.1Z" transform="translate(78.82 82.55) rotate(-140.72)"/>
              <path class="cls-50" d="M55.1,25.86h.07v.07c0,.61-.49,1.1-1.1,1.1h-.07v-.07c0-.61.49-1.1,1.1-1.1Z" transform="translate(10.14 67.72) rotate(-68.72)"/>
              <path class="cls-12" d="M55.97,26.05h.07v.07c0,.61-.49,1.1-1.1,1.1h-.07v-.07c0-.61.49-1.1,1.1-1.1Z" transform="translate(1.61 -3.12) rotate(3.28)"/>
            </g>
            <g>
              <path class="cls-13" d="M55.5,27.05h.03v.03c0,.3-.24.54-.54.54h-.03v-.03c0-.3.24-.54.54-.54Z" transform="translate(66.85 -33.2) rotate(74.53)"/>
              <path class="cls-14" d="M55.1,27.23h.03v.03c0,.3-.24.54-.54.54h-.03v-.03c0-.3.24-.54.54-.54Z" transform="translate(115.77 20.22) rotate(146.53)"/>
              <path class="cls-11" d="M54.8,26.91h.03v.03c0,.3-.24.54-.54.54h-.03v-.03c0-.3.24-.54.54-.54Z" transform="translate(80.28 82.45) rotate(-141.47)"/>
              <path class="cls-19" d="M55.02,26.52h.03v.03c0,.3-.24.54-.54.54h-.03v-.03c0-.3.24-.54.54-.54Z" transform="translate(10.46 68.7) rotate(-69.47)"/>
              <path class="cls-17" d="M55.45,26.61h.03v.03c0,.3-.24.54-.54.54h-.03v-.03c0-.3.24-.54.54-.54Z" transform="translate(1.24 -2.41) rotate(2.53)"/>
            </g>
          </g>
          <g>
            <g>
              <path class="cls-20" d="M58.07,25.33h.08v.08c0,.7-.57,1.28-1.28,1.28h-.08v-.08c0-.7.57-1.28,1.28-1.28Z" transform="translate(110.17 -8.65) rotate(122.32)"/>
              <path class="cls-18" d="M57.12,24.92h.08v.08c0,.7-.57,1.28-1.28,1.28h-.08v-.08c0-.7.57-1.28,1.28-1.28Z" transform="translate(104.95 64.38) rotate(-165.68)"/>
              <path class="cls-16" d="M57.21,23.89h.08v.08c0,.7-.57,1.28-1.28,1.28h-.08v-.08c0-.7.57-1.28,1.28-1.28Z" transform="translate(35.73 82.64) rotate(-93.68)"/>
              <path class="cls-15" d="M58.22,23.66h.08v.08c0,.7-.57,1.28-1.28,1.28h-.08v-.08c0-.7.57-1.28,1.28-1.28Z" transform="translate(-4.92 23) rotate(-21.68)"/>
              <path class="cls-58" d="M58.75,24.55h.08v.08c0,.7-.57,1.28-1.28,1.28h-.08v-.08c0-.7.57-1.28,1.28-1.28Z" transform="translate(40.44 -35.64) rotate(50.32)"/>
            </g>
            <g>
              <path class="cls-59" d="M57.74,25.25h.05v.05c0,.4-.33.73-.73.73h-.05v-.05c0-.4.33-.73.73-.73Z" transform="translate(108.48 -11.02) rotate(120.28)"/>
              <path class="cls-60" d="M57.19,25.03h.05v.05c0,.4-.33.73-.73.73h-.05v-.05c0-.4.33-.73.73-.73Z" transform="translate(107.01 62.34) rotate(-167.72)"/>
              <path class="cls-54" d="M57.23,24.44h.05v.05c0,.4-.33.73-.73.73h-.05v-.05c0-.4.33-.73.73-.73Z" transform="translate(37.86 83.91) rotate(-95.72)"/>
              <path class="cls-55" d="M57.8,24.29h.05v.05c0,.4-.33.73-.73.73h-.05v-.05c0-.4.33-.73.73-.73Z" transform="translate(-5.07 25.2) rotate(-23.72)"/>
              <path class="cls-56" d="M58.12,24.79h.05v.05c0,.4-.33.73-.73.73h-.05v-.05c0-.4.33-.73.73-.73Z" transform="translate(38.11 -34.7) rotate(48.28)"/>
            </g>
            <g>
              <path class="cls-57" d="M57.52,25.22h.02v.02c0,.2-.16.36-.36.36h-.02v-.02c0-.2.16-.36.36-.36Z" transform="translate(107.72 -11.97) rotate(119.53)"/>
              <path class="cls-51" d="M57.24,25.11h.02v.02c0,.2-.16.36-.36.36h-.02v-.02c0-.2.16-.36.36-.36Z" transform="translate(107.94 61.5) rotate(-168.47)"/>
              <path class="cls-52" d="M57.26,24.82h.02v.02c0,.2-.16.36-.36.36h-.02v-.02c0-.2.16-.36.36-.36Z" transform="translate(38.67 84.56) rotate(-96.47)"/>
              <path class="cls-53" d="M57.54,24.74h.02v.02c0,.2-.16.36-.36.36h-.02v-.02c0-.2.16-.36.36-.36Z" transform="translate(-5.18 26.01) rotate(-24.47)"/>
              <path class="cls-61" d="M57.7,24.99h.02v.02c0,.2-.16.36-.36.36h-.02v-.02c0-.2.16-.36.36-.36Z" transform="translate(37.25 -34.26) rotate(47.53)"/>
            </g>
          </g>
          <path class="cls-63" d="M48.98,10.22h.1c.82,0,1.49.67,1.49,1.49v.1h-.1c-.82,0-1.49-.67-1.49-1.49v-.1h0Z" transform="translate(48.14 -39.94) rotate(75.69)"/>
          <path class="cls-63" d="M46.52,4.82h.1c.82,0,1.49.67,1.49,1.49v.1h-.1c-.82,0-1.49-.67-1.49-1.49v-.1h0Z" transform="translate(41.05 -41.62) rotate(75.69)"/>
          <path class="cls-63" d="M49.7,17.11h.1c.82,0,1.49.67,1.49,1.49v.1h-.1c-.82,0-1.49-.67-1.49-1.49v-.1h0Z" transform="translate(103.18 8.16) rotate(150)"/>
          <path class="cls-63" d="M38.87,9.1h.1c.82,0,1.49.67,1.49,1.49v.1h-.1c-.82,0-1.49-.67-1.49-1.49v-.1h0Z" transform="translate(78.68 22.08) rotate(-176.64)"/>
          <path class="cls-63" d="M43.14,18.65h.1c.82,0,1.49.67,1.49,1.49v.1h-.1c-.82,0-1.49-.67-1.49-1.49v-.1h0Z" transform="translate(91.7 14.31) rotate(150)"/>
        </g>
      </g>
    </g>
  </g>
</svg>